<?xml version="1.0" encoding="UTF-8" standalone="no"?>
<!-- Created with Inkscape (http://www.inkscape.org/) -->

<svg
   width="391.60281"
   height="216.44966"
   viewBox="0 0 103.61158 57.268971"
   version="1.1"
   id="svg1"
   xml:space="preserve"
   xmlns="http://www.w3.org/2000/svg"
   xmlns:svg="http://www.w3.org/2000/svg"><defs
     id="defs1" /><g
     id="layer1"
     transform="translate(-14.306177,-21.555697)"><path
       style="fill:#fff3c5;fill-opacity:1;stroke:#000000;stroke-width:0.217256;stroke-linecap:round;stroke-linejoin:round;stroke-dasharray:none;stroke-opacity:1;paint-order:stroke fill markers"
       d="m 32.326973,22.824483 c -0.07078,-0.531057 -0.137461,-1.061753 -0.199613,-1.591995 0,0 0,0 0,0 -0.112267,-0.957827 -0.204515,-1.912066 -0.257196,-2.858416 0,0 0,0 0,0 -0.01002,-0.237635 -0.01184,-0.472542 -0.003,-0.704183 -0.004,-0.08193 -0.0078,-0.163815 -0.01156,-0.245664 0.0363,-0.0014 0.07258,-0.0029 0.108823,-0.0044 0.02576,-0.0042 0.05214,-0.0082 0.07914,-0.01207 0.06295,-0.009 0.128184,-0.01629 0.195683,-0.02186 0.442794,-0.03037 0.848652,-0.03819 1.229667,-0.01741 2.204565,0.120276 2.992914,1.060636 3.337027,3.218029 0.08835,0.553876 0.179934,1.108063 0.274274,1.662452 0.215781,1.268016 0.444525,2.536509 0.685465,3.805306 5.1e-5,-5e-6 -0.148987,0.01568 -0.148936,0.01567 -0.630743,0.06607 -1.18833,0.08026 -1.679448,0.0507 -2.710969,-0.163207 -3.389236,-1.637448 -3.610323,-3.296189 z m 5.226932,1.619393 c -0.144582,-0.793677 -0.284272,-1.587208 -0.41888,-2.38055 -0.171163,-1.008804 -0.333147,-2.016911 -0.482993,-3.023666 0.07237,-0.0075 0.144762,-0.015 0.217174,-0.02257 0.431041,-0.04507 0.825526,-0.07237 1.188738,-0.08018 0,0 10e-7,0 10e-7,0 2.568694,-0.0552 3.474956,0.858795 3.917073,3.109531 0.355803,1.811329 0.735604,3.623304 1.137131,5.435412 5.9e-5,-8e-6 -0.148405,0.02023 -0.148345,0.02022 -4.097862,0.557012 -5.057327,-1.122774 -5.409899,-3.058199 z m 5.296805,1.434801 c -0.384979,-1.79192 -0.748099,-3.583568 -1.087165,-5.37445 1.31e-4,-1.7e-5 0.218699,-0.02918 0.21883,-0.0292 3.502468,-0.469611 4.643253,0.316671 5.225559,2.87799 0.409573,1.801543 0.839676,3.603236 1.288038,5.404566 -0.04924,0.0081 -0.09849,0.01608 -0.147752,0.0241 -4.078478,0.66381 -5.083314,-0.975091 -5.49751,-2.903009 z m 5.341543,1.282818 c -0.433207,-1.781565 -0.847947,-3.563343 -1.242026,-5.344839 0.073,-0.0117 0.145994,-0.02344 0.218972,-0.03522 3.505824,-0.565762 4.678686,0.202173 5.324765,2.747669 0.454934,1.792402 0.926929,3.584459 1.413716,5.375658 -0.04904,0.0091 -0.0981,0.01821 -0.147155,0.02729 -4.059427,0.751788 -5.1011,-0.849318 -5.568272,-2.770566 z m 5.376813,1.15409 c -0.473117,-1.77185 -0.931161,-3.544397 -1.371934,-5.317146 0.07305,-0.01337 0.146083,-0.02677 0.219109,-0.0402 2.688984,-0.494568 4.020666,-0.165743 4.811712,1.1517 0.242107,0.403193 0.432935,0.89799 0.59553,1.487966 0.491602,1.783771 0.996643,3.566508 1.514805,5.348149 -0.04885,0.01 -0.09771,0.01994 -0.146575,0.0299 -1.4404,0.293445 -2.50938,0.28 -3.304675,0.0573 -1.43207,-0.401012 -1.987275,-1.479197 -2.317972,-2.717672 z m 5.402289,1.048095 c -0.505212,-1.762579 -0.997504,-3.526214 -1.476568,-5.290842 0.07308,-0.01469 0.14615,-0.02942 0.219203,-0.04416 3.509465,-0.708419 4.72439,0.02973 5.464616,2.544923 0.522241,1.774509 1.057436,3.547928 1.605264,5.320195 -0.04866,0.01079 -0.09733,0.02157 -0.14601,0.03235 -4.024913,0.890682 -5.120777,-0.658526 -5.666505,-2.562461 z m 5.419085,0.954536 c -0.53482,-1.753344 -1.057197,-3.507797 -1.566822,-5.263298 0.07284,-0.01595 0.145673,-0.03192 0.218489,-0.04791 3.498295,-0.768426 4.726998,-0.04996 5.508886,2.451937 0.551708,1.765368 1.115884,3.529591 1.692206,5.292606 -0.04848,0.01158 -0.09696,0.02314 -0.145448,0.0347 -4.008884,0.955478 -5.129448,-0.573586 -5.707311,-2.468036 z m 5.433864,0.8645 c -0.56327,-1.744228 -1.114572,-3.48962 -1.653598,-5.236116 0.07261,-0.01715 0.145199,-0.03432 0.217779,-0.05151 3.487157,-0.826122 4.729052,-0.126637 5.550925,2.362139 0.580002,1.756351 1.171985,3.5115 1.775628,5.265385 -0.04829,0.01233 -0.09659,0.02465 -0.144887,0.03696 -3.992949,1.017647 -5.137081,-0.491743 -5.745847,-2.376855 z m 5.447405,0.777751 c -0.590558,-1.735233 -1.169625,-3.471686 -1.736892,-5.209297 0.07237,-0.0183 0.144727,-0.03662 0.217072,-0.05497 3.476052,-0.881508 4.73055,-0.20029 5.590732,2.275531 0.607124,1.747455 1.225741,3.493653 1.855532,5.238529 -0.0481,0.01305 -0.09621,0.02609 -0.144329,0.03912 -3.977106,1.077192 -5.143676,-0.412998 -5.782115,-2.288917 z m 5.459713,0.694289 c -0.616687,-1.72636 -1.22236,-3.453994 -1.816707,-5.182841 0.07214,-0.01941 0.144258,-0.03883 0.216369,-0.05828 3.464981,-0.93458 4.731492,-0.270921 5.628308,2.192114 0.633072,1.738681 1.27715,3.476049 1.931917,5.21204 -0.04792,0.01374 -0.09584,0.02747 -0.143773,0.04119 -3.961356,1.134115 -5.149235,-0.337355 -5.816114,-2.204222 z m 5.470784,0.614112 c -0.641656,-1.717607 -1.272773,-3.436543 -1.893041,-5.156747 0.0719,-0.02046 0.143791,-0.04095 0.215669,-0.06145 3.453945,-0.985338 4.731877,-0.338534 5.663652,2.111885 0.657847,1.73003 1.326215,3.458691 2.004783,5.185918 -0.04774,0.0144 -0.09547,0.02879 -0.143219,0.04317 -3.945696,1.188418 -5.153756,-0.264814 -5.847844,-2.12277 z m 5.480621,0.537221 c -0.665465,-1.708975 -1.320866,-3.419333 -1.965895,-5.131015 0.07167,-0.02147 0.143326,-0.04297 0.214972,-0.06448 3.442944,-1.033781 4.731704,-0.403127 5.696766,2.034846 0.681449,1.721501 1.372931,3.441576 2.074128,5.160163 -0.04755,0.01502 -0.09511,0.03004 -0.142667,0.04505 -3.930125,1.240103 -5.157242,-0.195377 -5.877304,-2.044561 z m 5.489222,0.463616 C 96.483936,32.569242 95.80541,30.86734 95.136781,29.16406 c 0.07144,-0.02243 0.142863,-0.04489 0.214278,-0.06736 3.43198,-1.079908 4.730971,-0.464702 5.727651,1.960998 0.70387,1.713094 1.4173,3.424706 2.13995,5.134773 -0.0474,0.01562 -0.0947,0.03123 -0.14212,0.04683 -3.914639,1.289171 -5.15969,-0.129047 -5.904491,-1.969596 z m 5.496591,0.393298 c -0.7096,-1.692073 -1.41009,-3.38564 -2.10116,-5.080639 0.0712,-0.02335 0.1424,-0.04671 0.21358,-0.07009 3.42106,-1.123719 4.72968,-0.523261 5.7563,1.890339 0.72513,1.704808 1.45933,3.408079 2.20227,5.109749 -0.0472,0.01618 -0.0944,0.03235 -0.14158,0.04852 -3.89924,1.335623 -5.16111,-0.06582 -5.92941,-1.897874 z m 5.50272,0.326265 c -0.72993,-1.683803 -1.45123,-3.369155 -2.16358,-5.055994 0.071,-0.02421 0.14195,-0.04844 0.2129,-0.07269 3.41016,-1.165212 4.72783,-0.578803 5.78272,1.822869 0.74522,1.696646 1.49901,3.391698 2.26105,5.085093 -0.047,0.01671 -0.094,0.03342 -0.14102,0.05011 -3.88394,1.379461 -5.1615,-0.0057 -5.95207,-1.829395 z m 5.50761,0.262518 c -0.7491,-1.675654 -1.49004,-3.352912 -2.22251,-5.031712 0.0707,-0.02503 0.14149,-0.05007 0.21222,-0.07513 3.39931,-1.204389 4.72542,-0.631329 5.8069,1.758589 0.76413,1.688606 1.53635,3.375561 2.31633,5.060803 -0.0468,0.01721 -0.0936,0.03441 -0.14048,0.05161 -3.86872,1.420684 -5.16086,0.0513 -5.97246,-1.764161 z m 5.51127,0.202059 c -0.7671,-1.667627 -1.52653,-3.336911 -2.27796,-5.007793 0.0705,-0.0258 0.14104,-0.05161 0.21154,-0.07743 3.3885,-1.241248 4.72244,-0.680839 5.82886,1.697499 0.78186,1.680687 1.57133,3.359668 2.36808,5.036879 -0.0467,0.01768 -0.0933,0.03535 -0.13995,0.05302 -3.85357,1.459296 -5.15918,0.105193 -5.99057,-1.702167 z m 5.5137,0.144883 c -0.78395,-1.659718 -1.5607,-3.321151 -2.32993,-4.984235 0.0703,-0.02652 0.14058,-0.05305 0.21086,-0.07959 3.37773,-1.275788 4.71891,-0.727334 5.84858,1.639598 0.79843,1.672891 1.60398,3.34402 2.41631,5.013322 -0.0465,0.01811 -0.0929,0.03622 -0.1394,0.05433 -3.83852,1.495295 -5.15649,0.155977 -6.00642,-1.643419 z m 5.51489,0.091 c -0.79964,-1.651932 -1.59255,-3.305633 -2.37842,-4.961041 0.0701,-0.02719 0.14013,-0.05439 0.21018,-0.0816 3.36701,-1.30801 4.71481,-0.770813 5.86608,1.584888 0.81382,1.665216 1.63427,3.328614 2.46102,4.990131 -0.0463,0.01852 -0.0926,0.03703 -0.13886,0.05554 -3.82355,1.528683 -5.15277,0.20365 -6.02,-1.587913 z m 5.51484,0.04039 c -0.81417,-1.644266 -1.62208,-3.290356 -2.42343,-4.938208 0.0699,-0.02781 0.13969,-0.05564 0.20952,-0.08347 1.87542,-0.747592 3.12244,-0.913923 4.06612,-0.504988 0.74557,0.322308 1.29891,1.003692 1.81517,2.037009 0.82811,1.657489 1.66263,3.313668 2.50384,4.968377 -0.0461,0.01892 -0.0923,0.03783 -0.13842,0.05674 -1.94907,0.798636 -3.25507,0.843525 -4.18059,0.459561 -0.88174,-0.365684 -1.4197,-1.12154 -1.85221,-1.995013 z m 5.51431,-0.0079 c -0.8283,-1.637297 -1.65013,-3.275991 -2.46577,-4.915923 0.0696,-0.02846 0.13923,-0.05694 0.20883,-0.08542 3.34525,-1.369155 4.7018,-0.856289 5.89377,1.478568 0.84268,1.650659 1.69218,3.299731 2.54876,4.947053 -0.046,0.01935 -0.0919,0.03868 -0.13792,0.05802 -3.79734,1.596682 -5.1499,0.292327 -6.04767,-1.482293 z m 5.51499,-0.05664 c -0.84328,-1.630142 -1.67971,-3.261952 -2.50954,-4.895274 0.0693,-0.02907 0.13867,-0.05816 0.20799,-0.08726 3.33164,-1.398537 4.69125,-0.898683 5.90513,1.425593 0.85805,1.642965 1.72333,3.284064 2.59609,4.923136 -0.0458,0.0198 -0.0916,0.03959 -0.13737,0.05937 -3.78268,1.634056 -5.14851,0.34085 -6.0623,-1.425564 z m 5.51464,-0.108319 c -0.85907,-1.622132 -1.71087,-3.246204 -2.5557,-4.872059 0.069,-0.02972 0.13805,-0.05946 0.20706,-0.0892 3.31646,-1.429627 4.67913,-0.943729 5.91606,1.368748 0.87423,1.634406 1.75608,3.266668 2.64583,4.896624 -0.0456,0.02027 -0.0912,0.04053 -0.13676,0.06079 -3.76624,1.67336 -5.14586,0.392371 -6.07649,-1.3649 z m 5.51304,-0.163286 c -0.87564,-1.613266 -1.74362,-3.228745 -2.60423,-4.846279 0.0687,-0.0304 0.13737,-0.06082 0.20603,-0.09125 3.29974,-1.462422 4.66544,-0.991423 5.92656,1.308034 0.89121,1.624982 1.79044,3.247543 2.69798,4.867518 -0.0454,0.02077 -0.0907,0.04153 -0.13609,0.06228 -3.748,1.714594 -5.14192,0.446891 -6.09025,-1.300301 z m 5.51021,-0.221539 c -0.89301,-1.603545 -1.77796,-3.209575 -2.65514,-4.817933 0.0683,-0.03112 0.13661,-0.06226 0.2049,-0.09341 3.28146,-1.496926 4.65018,-1.041768 5.93664,1.243449 0.909,1.614694 1.82641,3.226689 2.75253,4.83582 -0.0451,0.02129 -0.0902,0.04257 -0.13534,0.06384 -3.72799,1.757757 -5.13673,0.504409 -6.10359,-1.231768 z m 5.50614,-0.283078 c -0.91116,-1.592969 -1.81388,-3.188696 -2.70843,-4.787022 -3e-5,1.5e-5 0.20371,-0.09569 0.20368,-0.09567 3.26163,-1.533137 4.63335,-1.094762 5.9463,1.174995 0.92758,1.603542 1.86398,3.204105 2.80949,4.801527 -0.0448,0.02183 -0.0897,0.04366 -0.13454,0.06547 -3.70617,1.802851 -5.13026,0.564928 -6.1165,-1.159299 z m 5.50084,-0.347903 c -0.93011,-1.581538 -1.85139,-3.166106 -2.7641,-4.753546 0.0675,-0.03267 0.13492,-0.06535 0.20235,-0.09804 3.24026,-1.571058 4.61497,-1.150404 5.95555,1.10267 0.94696,1.591525 1.90315,3.179793 2.86885,4.764641 -0.0446,0.0224 -0.0891,0.04479 -0.13367,0.06718 -3.68257,1.849871 -5.12253,0.628445 -6.12898,-1.082897 z m 5.49431,-0.416014 c -0.94986,-1.569252 -1.89048,-3.141806 -2.82215,-4.717504 0.067,-0.03349 0.13397,-0.067 0.20093,-0.100521 3.21732,-1.610686 4.595,-1.208695 5.96436,1.026477 0.96715,1.578642 1.94393,3.15375 2.93062,4.72516 -0.0442,0.02299 -0.0885,0.04597 -0.13273,0.06895 -3.65718,1.898821 -5.11353,0.694964 -6.14103,-1.002559 z m 5.48653,-0.487411 c -0.97039,-1.55611 -1.93116,-3.115795 -2.88258,-4.678897 0.0665,-0.03435 0.13296,-0.06872 0.19942,-0.103104 3.19284,-1.652025 4.57346,-1.269632 5.97275,0.946413 0.98814,1.564896 1.98631,3.125979 2.9948,4.683085 -0.0439,0.0236 -0.0878,0.0472 -0.13173,0.07079 -3.62999,1.949697 -5.10328,0.764486 -6.15266,-0.918286 z m 5.47753,-0.562094 c -0.99172,-1.542114 -1.97343,-3.088075 -2.94539,-4.637725 0.066,-0.03525 0.13188,-0.07051 0.1978,-0.105794 3.16682,-1.695073 4.55036,-1.333216 5.98073,0.86248 1.00992,1.550285 2.03029,3.096479 3.06138,4.638418 -0.0436,0.02424 -0.0871,0.04847 -0.13067,0.0727 -3.601,2.002497 -5.09175,0.837009 -6.16385,-0.830079 z m 5.46729,-0.640063 c -1.01385,-1.527263 -2.01729,-3.058644 -3.01058,-4.593987 0.0654,-0.03618 0.13074,-0.07238 0.19608,-0.108591 3.13924,-1.739834 4.52568,-1.399445 5.98828,0.774677 1.03252,1.534809 2.07588,3.065249 3.13037,4.591156 -0.0432,0.0249 -0.0864,0.0498 -0.12954,0.07468 -3.57022,2.057222 -5.07897,0.912539 -6.17461,-0.737936 z m 5.45581,-0.721319 c -1.03677,-1.511556 -2.06273,-3.027503 -3.07815,-4.547684 0.0648,-0.03715 0.12953,-0.07431 0.19427,-0.111493 3.11012,-1.786307 4.49943,-1.46832 5.99541,0.683003 1.05591,1.51847 2.12307,3.032291 3.20176,4.5413 -0.0428,0.02559 -0.0856,0.05116 -0.12835,0.07673 -3.53764,2.113868 -5.06492,0.991073 -6.18494,-0.64186 z m 5.4431,-0.80586 c -1.06048,-1.494994 -2.10976,-2.994652 -3.14811,-4.498815 0.0642,-0.03815 0.12827,-0.07632 0.19237,-0.114503 3.07945,-1.834493 4.4716,-1.539837 6.00212,0.58746 1.0801,1.501265 2.17186,2.997603 3.27555,4.488851 -0.0423,0.02629 -0.0847,0.05258 -0.12709,0.07886 -3.50325,2.172435 -5.04962,1.072617 -6.19484,-0.541848 z m 5.42915,-0.893687 c -1.08499,-1.477578 -2.15837,-2.960091 -3.22044,-4.447382 0.0635,-0.03919 0.12693,-0.07839 0.19036,-0.117618 3.04724,-1.884395 4.4422,-1.613997 6.0084,0.488047 1.10511,1.483195 2.22227,2.961186 3.35177,4.433808 -0.0419,0.02702 -0.0838,0.05404 -0.12578,0.08105 -3.46706,2.232921 -5.03306,1.15717 -6.20431,-0.437901 z m 5.41396,-0.984801 c -1.11028,-1.459306 -2.20857,-2.923819 -3.29514,-4.393383 0.0628,-0.04026 0.12553,-0.08054 0.18825,-0.12084 1.1807,-0.75854 2.10898,-1.182301 2.90351,-1.292482 1.23449,-0.171118 2.13653,0.419043 3.10827,1.677776 1.13024,1.46405 2.27363,2.921892 3.43216,4.372306 -0.0414,0.02785 -0.0828,0.05569 -0.12423,0.08351 -2.45295,1.647905 -3.97794,1.57048 -5.06896,0.822388 -0.43266,-0.29667 -0.80213,-0.700126 -1.14386,-1.149279 z m 5.39515,-1.080647 c -1.13756,-1.438375 -2.26084,-2.883694 -3.37177,-4.334777 0.0619,-0.04134 0.12378,-0.08269 0.18563,-0.124071 2.96924,-1.986532 4.35359,-1.768576 5.99772,0.273334 1.15919,1.439639 2.33437,2.871002 3.5275,4.292869 -0.0407,0.02884 -0.0815,0.05766 -0.12222,0.08647 -3.37364,2.385004 -4.99388,1.352553 -6.21686,-0.193825 z m 5.36628,-1.193774 c -1.1702,-1.411256 -2.32337,-2.831479 -3.46142,-4.259488 0.0607,-0.04256 0.12131,-0.08514 0.18191,-0.12775 2.90838,-2.044919 4.28181,-1.864832 5.97674,0.135633 1.19371,1.408892 2.40623,2.807439 3.63954,4.194423 -0.0399,0.02998 -0.0798,0.05996 -0.11973,0.08991 -3.3075,2.481545 -4.96184,1.481017 -6.21704,-0.03273 z m 5.32791,-1.330136 c -1.20836,-1.377869 -2.39692,-2.766728 -3.56759,-4.165396 0.0592,-0.04403 0.11835,-0.08809 0.17746,-0.13217 2.83625,-2.115278 4.19818,-1.979662 5.952,-0.02965 0.55071,0.612307 1.10572,1.222141 1.66522,1.829394 0.694,0.753235 1.39421,1.502773 2.10321,2.247034 -0.0389,0.03134 -0.0778,0.06266 -0.11675,0.09396 -0.37539,0.301754 -0.73227,0.555431 -1.0695,0.765215 0,0 0,0 0,0 -2.55629,1.590211 -3.99283,0.704319 -5.14405,-0.608389 z m 5.27975,-1.489695 c -0.37113,-0.396748 -0.74016,-0.794759 -1.10747,-1.193801 -0.8715,-0.946789 -1.73211,-1.899845 -2.58249,-2.858756 0.0575,-0.04575 0.11491,-0.09153 0.1723,-0.137333 0.45597,-0.364013 0.87177,-0.665241 1.25819,-0.906368 1.9448,-1.213559 3.10916,-0.875654 4.61848,0.687374 0.38328,0.396925 0.76975,0.79171 1.1598,1.184103 0,0 0,0 0,1e-6 0.67888,0.682965 1.36227,1.361236 2.06727,2.024408 0,0 0,0 0,0 0.17737,0.167223 0.35602,0.333619 0.53811,0.497885 0.0619,0.05572 0.12419,0.11128 0.18688,0.166685 -0.0675,-0.170785 -0.1351,-0.341618 -0.20279,-0.5125 0.0677,0.170857 0.13529,0.34174 0.20285,0.512649 0,0 0,0 0,0 -0.0298,0.02773 -0.0597,0.0555 -0.0896,0.08329 0,0 0,0 0,0 -0.007,0.0067 -0.0146,0.01341 -0.0219,0.0201 -0.0824,0.07565 -0.16449,0.148441 -0.24521,0.218035 -0.38475,0.332735 -0.75734,0.605724 -1.10469,0.822795 -2.30656,1.441461 -3.71488,0.604579 -4.84973,-0.608573 z"
       id="path1-8"
       transform="matrix(0.40619991,0,0,0.16249161,18.088297,18.753001)" /><path
       id="rect2"
       style="fill:#bec8b7;stroke:#000000;stroke-width:0.0753222"
       d="m 10.156731,55.188318 h 2.436201 v 0.09366 c 0,1.501375 -0.450671,1.91224 -1.609622,1.91224 H 8.5200905 v -0.06156 c 0,-1.692482 0.7522739,-1.94434 1.6366405,-1.94434 z"
       transform="rotate(-114.15164,16.598491,42.297062)" /><path
       id="rect2-1"
       style="fill:#bec8b7;stroke:#000000;stroke-width:0.0753222"
       d="m 15.980479,76.781113 h 2.436201 v 0.09366 a 1.6096214,1.9122402 0 0 1 -1.609622,1.91224 h -2.46322 v -0.06156 a 1.6366403,1.9443387 0 0 1 1.636641,-1.94434 z" /></g></svg>
