<?xml version="1.0" encoding="UTF-8" standalone="no"?>
<!-- Created with Inkscape (http://www.inkscape.org/) -->

<svg
   width="1761.1373"
   height="215.27492"
   viewBox="0 0 465.96758 56.958153"
   version="1.1"
   id="svg1"
   inkscape:version="1.4 (86a8ad7, 2024-10-11)"
   sodipodi:docname="rope-image-large.svg"
   inkscape:export-filename="rope.png"
   inkscape:export-xdpi="153.70866"
   inkscape:export-ydpi="153.70866"
   xmlns:inkscape="http://www.inkscape.org/namespaces/inkscape"
   xmlns:sodipodi="http://sodipodi.sourceforge.net/DTD/sodipodi-0.dtd"
   xmlns="http://www.w3.org/2000/svg"
   xmlns:svg="http://www.w3.org/2000/svg">
  <sodipodi:namedview
     id="namedview1"
     pagecolor="#ffffff"
     bordercolor="#000000"
     borderopacity="0.25"
     inkscape:showpageshadow="2"
     inkscape:pageopacity="0.0"
     inkscape:pagecheckerboard="0"
     inkscape:deskcolor="#d1d1d1"
     inkscape:document-units="mm"
     inkscape:zoom="1.0708053"
     inkscape:cx="711.61398"
     inkscape:cy="146.61863"
     inkscape:window-width="2560"
     inkscape:window-height="1494"
     inkscape:window-x="-11"
     inkscape:window-y="-11"
     inkscape:window-maximized="1"
     inkscape:current-layer="layer1">
    <inkscape:page
       x="0"
       y="0"
       width="465.96759"
       height="56.958153"
       id="page2"
       margin="0"
       bleed="0" />
  </sodipodi:namedview>
  <defs
     id="defs1">
    <inkscape:path-effect
       effect="skeletal"
       id="path-effect5"
       is_visible="true"
       lpeversion="1"
       pattern="#rect2"
       copytype="repeated_stretched"
       prop_scale="0.44"
       scale_y_rel="false"
       spacing="-0.6"
       normal_offset="-1.2"
       tang_offset="0"
       prop_units="false"
       vertical_pattern="false"
       hide_knot="false"
       fuse_tolerance="0" />
  </defs>
  <g
     inkscape:label="Layer 1"
     inkscape:groupmode="layer"
     id="layer1"
     transform="translate(-14.306177,-21.866517)">
    <path
       style="fill:#fff3c5;fill-opacity:1;stroke:#000000;stroke-width:0.217223;stroke-linecap:round;stroke-linejoin:round;stroke-dasharray:none;stroke-opacity:1;paint-order:stroke fill markers"
       d="m 30.167928,23.057457 c -0.0034,-0.03303 -0.0067,-0.06606 -0.01005,-0.09909 -0.0244,-0.244547 -0.0463,-0.488653 -0.06323,-0.731773 0,0 0,0 0,0 -0.0069,-0.08334 -0.01356,-0.166639 -0.02013,-0.2499 0.01452,-3.88e-4 0.02904,-7.76e-4 0.04356,-0.0012 0.02466,-6.62e-4 0.04936,-5.01e-4 0.07405,4.82e-4 0.106011,0.0022 0.211713,0.02033 0.31249,0.05405 0,0 0,0 0,0 0.313302,0.104707 0.533855,0.34178 0.564581,0.6146 0.04097,0.363774 0.08503,0.727948 0.131123,1.09229 -0.0097,5.72e-4 -0.01943,0.0011 -0.02915,0.0017 -0.510314,0.02982 -0.962008,-0.278488 -1.003239,-0.681205 z m 1.016616,0.365946 c -0.04445,-0.360214 -0.08663,-0.720202 -0.125548,-1.07974 0.0145,-8.36e-4 0.02901,-0.0017 0.04351,-0.0025 0.209771,-0.01224 0.419827,0.03443 0.593921,0.132527 0,0 0,0 0,0 0.216818,0.122171 0.357947,0.313059 0.385005,0.522766 0.04689,0.363403 0.09571,0.726977 0.146326,1.090694 8e-6,-1e-6 -0.02913,0.0021 -0.02912,0.0021 -0.38149,0.02713 -0.748811,-0.13673 -0.920856,-0.409754 -0.05072,-0.0805 -0.08229,-0.167285 -0.09324,-0.256044 z m 1.02348,0.350404 c -0.04911,-0.359627 -0.09642,-0.719109 -0.141816,-1.078414 0.01458,-0.001 0.02917,-0.002 0.04375,-0.0031 0.491915,-0.03463 0.934584,0.250953 0.990143,0.643741 0.05133,0.362876 0.104383,0.725895 0.159032,1.089027 -0.0097,8.02e-4 -0.01939,0.0016 -0.02909,0.0024 -0.508652,0.04192 -0.96732,-0.253118 -1.022017,-0.653686 z m 1.027851,0.3382 c -0.0532,-0.359067 -0.10481,-0.718016 -0.154697,-1.076818 2e-5,-10e-7 0.04375,-0.0036 0.04377,-0.0036 0.492261,-0.04028 0.938842,0.240826 0.998677,0.633113 0.05528,0.362387 0.112073,0.724887 0.170261,1.087472 -0.0097,8.97e-4 -0.01937,0.0018 -0.02906,0.0027 -0.508022,0.04693 -0.969692,-0.242965 -1.028945,-0.642884 z m 1.031653,0.327343 c -0.05681,-0.358544 -0.112224,-0.716997 -0.166117,-1.075332 0.0146,-0.0013 0.02919,-0.0027 0.04378,-0.004 0.492613,-0.04527 0.942681,0.231954 1.00626,0.623776 0.05873,0.361935 0.118778,0.723955 0.180014,1.086031 -0.0097,9.79e-4 -0.01936,0.002 -0.02904,0.0029 -0.507399,0.05125 -0.971637,-0.234079 -1.034906,-0.633397 z m 1.034911,0.317839 c -0.05993,-0.358058 -0.118666,-0.716054 -0.176078,-1.073958 0.0146,-0.0015 0.0292,-0.0029 0.0438,-0.0044 0.492972,-0.04959 0.946101,0.224338 1.01289,0.615731 0.03568,0.209082 0.07173,0.418183 0.108131,0.627297 0.02654,0.152462 0.05326,0.304931 0.08016,0.457405 -0.0097,0.001 -0.01934,0.0021 -0.02901,0.0031 -0.06246,0.0068 -0.125656,0.0085 -0.188594,0.005 -0.438227,-0.02382 -0.794027,-0.288023 -0.851307,-0.630251 z m 1.037622,0.309684 c -0.01138,-0.06507 -0.02274,-0.130147 -0.03406,-0.195219 -0.05088,-0.292524 -0.101078,-0.585021 -0.150523,-0.877477 0.01461,-0.0016 0.02922,-0.0031 0.04382,-0.0047 0.120967,-0.01305 0.243951,-0.0067 0.361597,0.01873 0.347985,0.07519 0.606399,0.306772 0.656745,0.590063 0.06417,0.361093 0.129356,0.722218 0.195533,1.083372 -0.0097,0.0011 -0.01932,0.0022 -0.02898,0.0033 -0.506341,0.05823 -0.974473,-0.219909 -1.044134,-0.618086 z m 1.039772,0.302591 c -0.06493,-0.357165 -0.128877,-0.714301 -0.191834,-1.071404 4e-6,0 0.04381,-0.005 0.04381,-0.005 0.493277,-0.05648 0.950512,0.21171 1.022532,0.602086 0.06654,0.360654 0.134058,0.721338 0.202546,1.082046 2e-6,-10e-7 -0.02896,0.0035 -0.02896,0.0035 -0.505911,0.06148 -0.975802,-0.213561 -1.048093,-0.611239 z m 1.041702,0.295791 c -0.06723,-0.356726 -0.133501,-0.713427 -0.19881,-1.070099 5e-6,-1e-6 0.04378,-0.0053 0.04378,-0.0053 0.492981,-0.05968 0.952015,0.205609 1.026525,0.595521 0.06884,0.360221 0.138631,0.720467 0.209366,1.080734 2e-6,0 -0.02894,0.0037 -0.02894,0.0037 -0.505481,0.06463 -0.977075,-0.20738 -1.051926,-0.604565 z m 1.043562,0.289168 c -0.06946,-0.356292 -0.138,-0.712563 -0.205596,-1.068809 5e-6,0 0.04375,-0.0056 0.04375,-0.0056 0.492684,-0.06279 0.953463,0.199671 1.030394,0.589125 0.07107,0.359792 0.143075,0.719606 0.215993,1.079436 -0.0096,0.0013 -0.01928,0.0026 -0.02892,0.0039 -0.505051,0.0677 -0.978292,-0.201364 -1.055631,-0.598061 z m 1.045349,0.282721 c -0.07164,-0.355863 -0.142371,-0.711709 -0.212192,-1.067533 0.01458,-0.0019 0.02915,-0.0039 0.04373,-0.0058 0.492389,-0.06581 0.954856,0.193896 1.034138,0.582895 0.07324,0.359369 0.147392,0.718755 0.222428,1.078154 2e-6,0 -0.02889,0.004 -0.02889,0.004 -0.504623,0.07068 -0.979453,-0.195512 -1.05921,-0.591727 z m 1.047064,0.276449 c -0.07374,-0.355438 -0.146614,-0.710863 -0.218596,-1.06627 0.01457,-0.002 0.02913,-0.0041 0.0437,-0.0061 0.492094,-0.06874 0.956193,0.188285 1.037757,0.576834 0.07535,0.35895 0.15158,0.717913 0.228671,1.076885 2e-6,-1e-6 -0.02887,0.0042 -0.02887,0.0042 -0.504195,0.07357 -0.980558,-0.189826 -1.062663,-0.585564 z m 1.048709,0.270354 c -0.07579,-0.355019 -0.150732,-0.710028 -0.224812,-1.065023 6e-6,0 0.04367,-0.0064 0.04367,-0.0064 0.491801,-0.07159 0.957476,0.182836 1.041253,0.570941 0.0774,0.358535 0.15564,0.71708 0.234721,1.07563 -0.0096,0.0015 -0.01923,0.0029 -0.02884,0.0044 -0.503767,0.07637 -0.981606,-0.184306 -1.065988,-0.579572 z M 43.6565,27.04838 c -0.07777,-0.354603 -0.154722,-0.709201 -0.230836,-1.063788 5e-6,0 0.04364,-0.0066 0.04364,-0.0066 0.491507,-0.07435 0.958704,0.177551 1.044624,0.565216 0.07937,0.358125 0.159571,0.716256 0.240578,1.074389 2e-6,-1e-6 -0.02882,0.0045 -0.02882,0.0045 -0.503341,0.07908 -0.9826,-0.17895 -1.069188,-0.573751 z m 1.051783,0.25869 c -0.07969,-0.354193 -0.158587,-0.708384 -0.236671,-1.062568 5e-6,-1e-6 0.04361,-0.0068 0.04362,-0.0068 0.491214,-0.07702 0.959876,0.172429 1.04787,0.559659 0.08129,0.35772 0.163375,0.715442 0.246243,1.073161 -0.0096,0.0016 -0.0192,0.0031 -0.0288,0.0047 -0.502915,0.0817 -0.983537,-0.173759 -1.07226,-0.5681 z m 1.053211,0.253121 c -0.08155,-0.353787 -0.162323,-0.707575 -0.242315,-1.061361 6e-6,-1e-6 0.04358,-0.0071 0.04359,-0.0071 0.490921,-0.0796 0.960993,0.16747 1.050991,0.55427 0.08314,0.357319 0.16705,0.714637 0.251716,1.071949 -0.0096,0.0016 -0.01918,0.0032 -0.02877,0.0048 -0.502489,0.08423 -0.984417,-0.168733 -1.075206,-0.56262 z m 1.054569,0.24773 c -0.08334,-0.353386 -0.165933,-0.706777 -0.247769,-1.060169 0.01452,-0.0024 0.02904,-0.0049 0.04356,-0.0073 0.49063,-0.0821 0.962055,0.162674 1.053987,0.549048 0.08493,0.356924 0.170598,0.713843 0.256997,1.070751 -0.0096,0.0017 -0.01917,0.0033 -0.02875,0.005 -0.502064,0.08667 -0.985242,-0.163873 -1.078025,-0.55731 z m 1.055856,0.242513 c -0.08507,-0.35299 -0.169417,-0.705988 -0.253033,-1.058991 0.01451,-0.0025 0.02902,-0.005 0.04353,-0.0075 0.490339,-0.08451 0.963062,0.15804 1.05686,0.543994 0.08665,0.356533 0.174016,0.713057 0.262085,1.069567 -0.0096,0.0017 -0.01915,0.0034 -0.02873,0.0051 -0.50164,0.08903 -0.98601,-0.159179 -1.080717,-0.552172 z m 1.05707,0.237472 c -0.08673,-0.352598 -0.172773,-0.705208 -0.258106,-1.057827 0.0145,-0.0026 0.029,-0.0051 0.0435,-0.0077 0.490048,-0.08683 0.964013,0.153571 1.059608,0.539109 0.08831,0.356147 0.177306,0.71228 0.266981,1.068396 -0.0096,0.0017 -0.01914,0.0035 -0.0287,0.0052 -0.501217,0.09129 -0.986723,-0.154649 -1.083283,-0.547204 z m 1.058212,0.232608 c -0.08833,-0.352211 -0.176002,-0.704438 -0.262989,-1.056677 0.01449,-0.0026 0.02899,-0.0053 0.04348,-0.0079 0.489759,-0.08907 0.96491,0.149263 1.062231,0.53439 0.0899,0.355766 0.180468,0.711514 0.271685,1.067241 -0.0096,0.0018 -0.01912,0.0036 -0.02868,0.0054 -0.500794,0.09346 -0.98738,-0.150285 -1.085723,-0.542407 z m 1.059284,0.227918 c -0.08987,-0.351828 -0.179105,-0.703675 -0.267682,-1.055539 0.01448,-0.0027 0.02897,-0.0054 0.04345,-0.0081 0.489469,-0.09122 0.965752,0.14512 1.064729,0.529841 0.09143,0.355389 0.183503,0.710757 0.276196,1.066099 -0.0096,0.0018 -0.0191,0.0037 -0.02866,0.0055 -0.500372,0.09555 -0.987979,-0.146086 -1.088035,-0.537781 z m 1.060284,0.223406 c -0.09135,-0.35145 -0.182081,-0.702924 -0.272185,-1.054417 0.01447,-0.0028 0.02895,-0.0055 0.04342,-0.0083 0.48918,-0.09328 0.966538,0.141139 1.067103,0.525459 0.0929,0.355016 0.186408,0.710008 0.280515,1.064971 -0.0095,0.0019 -0.01909,0.0037 -0.02864,0.0056 -0.499951,0.09754 -0.988524,-0.142053 -1.090221,-0.533326 z m 1.061211,0.219069 c -0.09276,-0.351077 -0.184929,-0.702181 -0.276496,-1.053309 0.01447,-0.0028 0.02893,-0.0056 0.0434,-0.0085 0.488893,-0.09525 0.96727,0.137321 1.069353,0.521244 0.0943,0.35465 0.189185,0.709271 0.28464,1.063859 -0.0095,0.0019 -0.01907,0.0038 -0.02861,0.0057 -0.49953,0.09945 -0.989012,-0.138185 -1.092281,-0.529041 z m 1.062068,0.214908 c -0.09411,-0.350709 -0.187651,-0.701448 -0.280618,-1.052215 0.01446,-0.0029 0.02891,-0.0057 0.04337,-0.0086 0.488605,-0.09714 0.967946,0.133666 1.071478,0.517198 0.09564,0.354287 0.191834,0.708541 0.288574,1.062759 -0.0095,0.0019 -0.01906,0.0039 -0.02859,0.0058 -0.49911,0.101267 -0.989445,-0.134482 -1.094214,-0.524926 z m 1.062853,0.210922 c -0.09539,-0.350345 -0.190247,-0.700724 -0.28455,-1.051135 0.01445,-0.0029 0.0289,-0.0058 0.04334,-0.0088 0.488318,-0.09893 0.968568,0.130174 1.073478,0.51332 0.02772,0.101217 0.05547,0.202431 0.08328,0.303642 0.06941,0.252697 0.139094,0.505375 0.209041,0.758031 -0.0095,0.002 -0.01904,0.0039 -0.02857,0.0059 -0.109203,0.02255 -0.221812,0.02936 -0.332327,0.0201 -0.379696,-0.03183 -0.683778,-0.24758 -0.763692,-0.541082 z m 1.063566,0.207113 c -0.04614,-0.167143 -0.09216,-0.334295 -0.138068,-0.501456 -0.05022,-0.182861 -0.100292,-0.365732 -0.150224,-0.548613 0.01444,-0.003 0.02888,-0.006 0.04332,-0.0089 0.07209,-0.01487 0.14579,-0.02279 0.219463,-0.02358 0.414719,-0.0045 0.767551,0.214965 0.855858,0.533172 0.09812,0.353569 0.196763,0.707097 0.295923,1.060584 -0.0095,0.002 -0.01903,0.004 -0.02854,0.006 -0.49829,0.104685 -0.990168,-0.127544 -1.097723,-0.517172 z m 1.064201,0.20344 c -0.0978,-0.349625 -0.195089,-0.69929 -0.29187,-1.048994 0.01443,-0.003 0.02886,-0.006 0.04328,-0.0091 0.487685,-0.102299 0.969487,0.123529 1.076999,0.505879 0.09932,0.353206 0.199151,0.706371 0.2995,1.059494 -0.0095,0.002 -0.01901,0.0041 -0.02852,0.0061 -0.497892,0.106364 -0.990515,-0.124172 -1.099391,-0.513398 z m 1.06481,0.199804 c -0.09898,-0.349265 -0.197448,-0.698571 -0.295414,-1.047917 0.01442,-0.0031 0.02883,-0.0061 0.04325,-0.0092 0.487312,-0.10395 0.969857,0.12023 1.078654,0.50219 0.100505,0.352844 0.201522,0.705646 0.30305,1.058407 -0.0095,0.0021 -0.019,0.0041 -0.0285,0.0062 -0.497496,0.10803 -0.990855,-0.120822 -1.101041,-0.509648 z m 1.065407,0.196194 c -0.100144,-0.348908 -0.199789,-0.697856 -0.298931,-1.046844 0.01441,-0.0031 0.02881,-0.0062 0.04322,-0.0094 0.48694,-0.105588 0.970219,0.116955 1.080292,0.498526 0.101683,0.352483 0.203875,0.704924 0.306573,1.057323 -0.0095,0.0021 -0.01898,0.0042 -0.02848,0.0063 -0.497099,0.109683 -0.991188,-0.117497 -1.102675,-0.505922 z m 1.065996,0.192607 c -0.101304,-0.34855 -0.202112,-0.697141 -0.302421,-1.045772 0.0144,-0.0032 0.02879,-0.0063 0.04318,-0.0095 0.486567,-0.107214 0.970574,0.113703 1.081913,0.494885 0.102852,0.352123 0.206209,0.704204 0.31007,1.056242 -0.0095,0.0021 -0.01897,0.0043 -0.02845,0.0064 -0.496703,0.111324 -0.991514,-0.114195 -1.104292,-0.502221 z m 1.066576,0.189046 c -0.102455,-0.348194 -0.204417,-0.696428 -0.305885,-1.044704 0.01438,-0.0032 0.02877,-0.0064 0.04315,-0.0097 0.486195,-0.108829 0.970922,0.110473 1.083517,0.491267 0.104012,0.351764 0.208526,0.703485 0.313539,1.055163 -0.0095,0.0022 -0.01895,0.0043 -0.02843,0.0065 -0.496307,0.112953 -0.991832,-0.110915 -1.105891,-0.498543 z m 1.067146,0.185509 c -0.103597,-0.347837 -0.206705,-0.695717 -0.309322,-1.043638 0.01437,-0.0033 0.02875,-0.0065 0.04312,-0.0098 0.485824,-0.11043 0.971263,0.107266 1.085106,0.487674 0.105163,0.351406 0.210824,0.702768 0.316981,1.054088 -0.0095,0.0022 -0.01894,0.0044 -0.02841,0.0066 -0.495912,0.114569 -0.992144,-0.10766 -1.107474,-0.494891 z m 1.067707,0.181998 c -0.10473,-0.347483 -0.208975,-0.695008 -0.312733,-1.042575 0.01436,-0.0033 0.02872,-0.0066 0.04308,-0.0099 0.485453,-0.11202 0.971597,0.104083 1.086676,0.484104 0.106306,0.351049 0.213106,0.702054 0.320398,1.053015 -0.0095,0.0022 -0.01892,0.0044 -0.02839,0.0067 -0.495516,0.116172 -0.992448,-0.104428 -1.109039,-0.491263 z m 1.068258,0.178511 c -0.105854,-0.347129 -0.211228,-0.6943 -0.316116,-1.041514 0.01435,-0.0034 0.0287,-0.0067 0.04305,-0.01008 0.485083,-0.113597 0.971924,0.100923 1.088231,0.48056 0.107439,0.350692 0.215368,0.70134 0.323786,1.051944 -0.0095,0.0023 -0.01891,0.0045 -0.02836,0.0067 -0.495122,0.117764 -0.992745,-0.101219 -1.110588,-0.487659 z m 1.068801,0.175049 c -0.10697,-0.346776 -0.213463,-0.693595 -0.319475,-1.040456 0.01434,-0.0034 0.02868,-0.0068 0.04302,-0.01022 0.484712,-0.115162 0.972244,0.09779 1.089768,0.477039 0.108563,0.350336 0.217614,0.700629 0.327149,1.050877 -0.0094,0.0023 -0.01889,0.0046 -0.02834,0.0068 -0.494727,0.119342 -0.993034,-0.09803 -1.112118,-0.48408 z m 1.069334,0.171612 c -0.108078,-0.346423 -0.21568,-0.692891 -0.322806,-1.039401 0.01433,-0.0035 0.02866,-0.0069 0.04298,-0.01036 0.484343,-0.116715 0.972557,0.09467 1.091289,0.473541 0.109679,0.349982 0.219841,0.69992 0.330484,1.049812 -0.0094,0.0023 -0.01888,0.0046 -0.02832,0.0069 -0.494334,0.120908 -0.993317,-0.09487 -1.113632,-0.480525 z m 1.069856,0.1682 c -0.109175,-0.346072 -0.217879,-0.692189 -0.32611,-1.038349 0.01432,-0.0035 0.02863,-0.007 0.04295,-0.01049 0.483973,-0.118256 0.972862,0.09158 1.092792,0.470067 0.110785,0.349629 0.222051,0.699212 0.333793,1.04875 -0.0094,0.0023 -0.01886,0.0047 -0.0283,0.007 -0.49394,0.122462 -0.993592,-0.09173 -1.11513,-0.476994 z m 1.070372,0.164813 c -0.110265,-0.345722 -0.220062,-0.691489 -0.329389,-1.037299 0.01431,-0.0035 0.02861,-0.0071 0.04292,-0.01063 0.483604,-0.119783 0.97316,0.08851 1.094279,0.466618 0.111883,0.349276 0.224242,0.698507 0.337074,1.047691 -0.0094,0.0024 -0.01885,0.0047 -0.02827,0.0071 -0.493547,0.124003 -0.993859,-0.08862 -1.116609,-0.473487 z m 1.070875,0.16145 c -0.111344,-0.345373 -0.222225,-0.69079 -0.332639,-1.036252 0.0143,-0.0036 0.02859,-0.0072 0.04288,-0.01076 0.483236,-0.1213 0.973452,0.08546 1.095749,0.463193 0.112972,0.348924 0.226416,0.697802 0.34033,1.046633 -0.0094,0.0024 -0.01883,0.0048 -0.02825,0.0072 -0.493155,0.125532 -0.99412,-0.08552 -1.118073,-0.470005 z m 1.071372,0.158113 c -0.112416,-0.345024 -0.224372,-0.690094 -0.335865,-1.035208 0.01429,-0.0036 0.02857,-0.0073 0.04285,-0.01089 0.482867,-0.122804 0.973736,0.08244 1.097202,0.459791 0.114052,0.348573 0.228572,0.697099 0.343558,1.045579 -0.0094,0.0024 -0.01882,0.0049 -0.02823,0.0073 -0.492764,0.127048 -0.994375,-0.08246 -1.119519,-0.466547 z m 1.071857,0.154799 c -0.113478,-0.344676 -0.2265,-0.689398 -0.339063,-1.034166 0.01427,-0.0037 0.02855,-0.0073 0.04282,-0.01103 0.4825,-0.124296 0.974013,0.07944 1.098639,0.456413 0.115123,0.348223 0.23071,0.696399 0.346759,1.044528 -0.0094,0.0025 -0.0188,0.0049 -0.02821,0.0074 -0.492372,0.128552 -0.994621,-0.07941 -1.120948,-0.463114 z m 1.072335,0.151512 c -0.114532,-0.344329 -0.228611,-0.688705 -0.342236,-1.033127 0.01426,-0.0037 0.02853,-0.0074 0.04279,-0.01116 0.482132,-0.125775 0.974283,0.07647 1.100059,0.45306 0.116184,0.347874 0.232829,0.695701 0.349933,1.043479 -0.0094,0.0025 -0.01879,0.005 -0.02818,0.0075 -0.49198,0.130043 -0.99486,-0.07639 -1.122359,-0.459705 z m 1.072801,0.148249 c -0.115576,-0.343984 -0.230704,-0.688014 -0.34538,-1.03209 0.01425,-0.0038 0.0285,-0.0075 0.04275,-0.01129 0.481766,-0.127242 0.974547,0.07351 1.101463,0.44973 0.117237,0.347526 0.234931,0.695004 0.35308,1.042433 -0.0094,0.0025 -0.01877,0.005 -0.02816,0.0075 -0.49159,0.131522 -0.995092,-0.07339 -1.123755,-0.45632 z m 1.07326,0.145011 c -0.116613,-0.343639 -0.23278,-0.687325 -0.348499,-1.031057 0.01424,-0.0038 0.02848,-0.0076 0.04272,-0.01142 0.481399,-0.128697 0.974803,0.07058 1.102849,0.446424 0.118281,0.347179 0.237016,0.694309 0.356202,1.041391 -0.0094,0.0025 -0.01876,0.0051 -0.02814,0.0076 -0.491199,0.132988 -0.995316,-0.07041 -1.125132,-0.452959 z m 1.073709,0.141797 c -0.11764,-0.343295 -0.234838,-0.686637 -0.351592,-1.030026 0.01423,-0.0038 0.02846,-0.0077 0.04269,-0.01155 0.481033,-0.130141 0.975051,0.06767 1.104218,0.443142 0.119317,0.346832 0.239083,0.693615 0.359296,1.040349 -0.0094,0.0026 -0.01874,0.0051 -0.02812,0.0077 -0.49081,0.134442 -0.995535,-0.06746 -1.126493,-0.449623 z m 1.074148,0.138608 c -0.118658,-0.342951 -0.236878,-0.68595 -0.354658,-1.028997 0.01422,-0.0039 0.02844,-0.0078 0.04266,-0.01167 0.480667,-0.131571 0.975293,0.06479 1.105571,0.439884 0.120342,0.346486 0.241131,0.692924 0.362362,1.039312 -0.0094,0.0026 -0.01873,0.0052 -0.0281,0.0078 -0.49042,0.135883 -0.995744,-0.06453 -1.127836,-0.446312 z m 1.074578,0.135445 c -0.119668,-0.342609 -0.238901,-0.685266 -0.357697,-1.027971 0.01421,-0.0039 0.02842,-0.0079 0.04262,-0.0118 0.480302,-0.13299 0.975528,0.06193 1.106907,0.43665 0.12136,0.346142 0.243161,0.692234 0.365403,1.038276 -0.0094,0.0026 -0.01872,0.0052 -0.02807,0.0079 -0.490031,0.137313 -0.995948,-0.06163 -1.129163,-0.443024 z m 1.074998,0.132307 c -0.120668,-0.342268 -0.240905,-0.684584 -0.360709,-1.026949 0.0142,-0.004 0.0284,-0.0079 0.04259,-0.01192 0.479938,-0.134396 0.975756,0.05909 1.108227,0.43344 0.122368,0.345798 0.245174,0.691546 0.368416,1.037244 -0.0093,0.0026 -0.0187,0.0053 -0.02805,0.0079 -0.489643,0.138729 -0.996143,-0.05874 -1.130473,-0.43976 z m 1.07541,0.129192 c -0.121659,-0.341927 -0.242892,-0.683904 -0.363695,-1.025929 0.01419,-0.004 0.02837,-0.008 0.04256,-0.01205 0.479573,-0.13579 0.975976,0.05627 1.109529,0.430254 0.123367,0.345455 0.247169,0.69086 0.371403,1.036214 -0.0093,0.0027 -0.01869,0.0054 -0.02803,0.008 -0.489255,0.140133 -0.996333,-0.05588 -1.131766,-0.436522 z m 1.075813,0.126103 c -0.122643,-0.341587 -0.244862,-0.683225 -0.366655,-1.024911 0.01418,-0.0041 0.02835,-0.0081 0.04253,-0.01217 0.479209,-0.137172 0.97619,0.05348 1.110815,0.427092 0.124357,0.345113 0.249145,0.690176 0.374362,1.035187 -0.0093,0.0027 -0.01867,0.0054 -0.02801,0.0081 -0.488867,0.141525 -0.996514,-0.05305 -1.133041,-0.433307 z m 1.076205,0.123039 c -0.123617,-0.341249 -0.246814,-0.682548 -0.369588,-1.023896 0.01417,-0.0041 0.02833,-0.0082 0.04249,-0.01229 0.478845,-0.138541 0.976395,0.05071 1.112083,0.423954 0.125339,0.344772 0.251105,0.689494 0.377296,1.034163 -0.0093,0.0027 -0.01866,0.0055 -0.02799,0.0082 -0.48848,0.142904 -0.996688,-0.05024 -1.134299,-0.430117 z m 1.076588,0.119999 c -0.124582,-0.34091 -0.248747,-0.681872 -0.372494,-1.022883 0.01415,-0.0041 0.02831,-0.0083 0.04246,-0.01241 0.478483,-0.139899 0.976595,0.04796 1.113336,0.420839 0.126311,0.344432 0.253045,0.688813 0.380201,1.033141 -0.0093,0.0028 -0.01864,0.0055 -0.02796,0.0083 -0.488093,0.14427 -0.996856,-0.04745 -1.135541,-0.426952 z m 1.076962,0.116985 c -0.125538,-0.340574 -0.250663,-0.681198 -0.375374,-1.021874 0.01414,-0.0042 0.02829,-0.0084 0.04243,-0.01253 0.47812,-0.141244 0.976787,0.04524 1.114571,0.417749 0.127275,0.344093 0.254969,0.688134 0.383081,1.032122 -0.0093,0.0028 -0.01863,0.0056 -0.02794,0.0083 -0.487706,0.145624 -0.997015,-0.04468 -1.136765,-0.423811 z m 1.077327,0.113996 C 86.226684,33.887 86.100607,33.54671 85.974942,33.20637 c 0.01413,-0.0042 0.02827,-0.0084 0.0424,-0.01265 0.477758,-0.142577 0.976973,0.04254 1.11579,0.414682 0.128229,0.343755 0.256874,0.687457 0.385933,1.031106 -0.0093,0.0028 -0.01861,0.0056 -0.02792,0.0084 -0.48732,0.146966 -0.997168,-0.04194 -1.137972,-0.420693 z m 1.077682,0.11103 c -0.127424,-0.339903 -0.254443,-0.679857 -0.381054,-1.019863 0.01412,-0.0043 0.02824,-0.0085 0.04236,-0.01277 0.477396,-0.143897 0.977151,0.03986 1.116992,0.41164 0.129175,0.343418 0.258762,0.686782 0.388759,1.030093 -0.0093,0.0028 -0.0186,0.0057 -0.0279,0.0085 -0.486935,0.148296 -0.997314,-0.03922 -1.139163,-0.4176 z m 1.078029,0.10809 c -0.128354,-0.339568 -0.256307,-0.679189 -0.383855,-1.018861 0.01411,-0.0043 0.02822,-0.0086 0.04233,-0.01288 0.477035,-0.145206 0.977322,0.03721 1.118177,0.408621 0.130111,0.343081 0.260631,0.686109 0.391557,1.029082 -0.0093,0.0029 -0.01858,0.0057 -0.02788,0.0086 -0.48655,0.149612 -0.997452,-0.03652 -1.140335,-0.414532 z m 1.078365,0.105175 c -0.129275,-0.339235 -0.258152,-0.678522 -0.386628,-1.017862 0.0141,-0.0043 0.0282,-0.0087 0.0423,-0.013 0.476674,-0.146502 0.977485,0.03458 1.119345,0.405627 0.131039,0.342745 0.262483,0.685437 0.394329,1.028074 -0.0093,0.0029 -0.01857,0.0058 -0.02785,0.0086 -0.486165,0.150916 -0.997583,-0.03385 -1.141491,-0.411489 z m 1.078692,0.102285 c -0.130187,-0.338902 -0.25998,-0.677858 -0.389375,-1.016866 0.01409,-0.0044 0.02818,-0.0087 0.04227,-0.01311 0.476313,-0.147785 0.977642,0.03197 1.120497,0.402656 0.131957,0.342411 0.264316,0.684768 0.397074,1.027069 -0.0093,0.0029 -0.01855,0.0058 -0.02783,0.0087 -0.485782,0.152208 -0.997707,-0.0312 -1.142631,-0.408469 z m 1.07901,0.09942 c -0.13109,-0.338571 -0.26179,-0.677195 -0.392096,-1.015873 0.01408,-0.0044 0.02816,-0.0088 0.04224,-0.01322 0.475953,-0.149058 0.977792,0.02938 1.121632,0.399709 0.132867,0.342077 0.266132,0.684099 0.399792,1.026066 -0.0093,0.0029 -0.01854,0.0059 -0.02781,0.0088 -0.485398,0.153487 -0.997824,-0.02858 -1.143753,-0.405473 z m 1.079319,0.09658 c -0.131985,-0.33824 -0.263582,-0.676535 -0.39479,-1.014882 0.01407,-0.0044 0.02814,-0.0089 0.0422,-0.01334 0.475593,-0.150318 0.977934,0.02682 1.12275,0.396786 0.133768,0.341744 0.26793,0.683433 0.402483,1.025066 -0.0093,0.003 -0.01852,0.0059 -0.02779,0.0089 -0.485014,0.154754 -0.997933,-0.02598 -1.144858,-0.402502 z m 1.079618,0.09376 c -0.13287,-0.33791 -0.265357,-0.675875 -0.397458,-1.013894 0.01406,-0.0045 0.02811,-0.009 0.04217,-0.01345 0.475234,-0.151564 0.97807,0.02428 1.123851,0.393888 0.13466,0.341412 0.26971,0.682768 0.405148,1.024069 -0.0093,0.003 -0.01851,0.006 -0.02777,0.0089 -0.484631,0.156009 -0.998036,-0.02339 -1.145946,-0.399555 z m 1.079908,0.09097 c -0.133747,-0.337581 -0.267114,-0.675218 -0.400099,-1.012908 0.01405,-0.0045 0.02809,-0.009 0.04214,-0.01356 0.474875,-0.152799 0.978199,0.02176 1.124936,0.391013 0.135543,0.341081 0.271472,0.682106 0.407785,1.023075 -0.0092,0.003 -0.0185,0.006 -0.02774,0.009 -0.484249,0.15725 -0.998131,-0.02084 -1.147017,-0.396633 z m 1.080189,0.08821 c -0.134615,-0.337253 -0.268853,-0.674562 -0.402713,-1.011925 0.01404,-0.0046 0.02807,-0.0091 0.04211,-0.01366 0.474517,-0.154022 0.97832,0.01927 1.126004,0.388162 0.136417,0.340751 0.273216,0.681445 0.410396,1.022082 -0.0092,0.003 -0.01848,0.0061 -0.02772,0.0091 -0.483867,0.15848 -0.998218,-0.01831 -1.14807,-0.393735 z m 1.08046,0.08546 c -0.135474,-0.336926 -0.270575,-0.673908 -0.405301,-1.010945 0.01402,-0.0046 0.02805,-0.0092 0.04207,-0.01377 0.474159,-0.155233 0.978435,0.0168 1.127055,0.385334 0.137282,0.340422 0.274943,0.680787 0.41298,1.021094 -0.0092,0.0031 -0.01847,0.0061 -0.0277,0.0092 -0.483485,0.159696 -0.998299,-0.0158 -1.149107,-0.390862 z m 1.080721,0.08275 c -0.136323,-0.3366 -0.272278,-0.673256 -0.407862,-1.009968 0.01402,-0.0046 0.02803,-0.0093 0.04204,-0.01388 0.473801,-0.156432 0.978541,0.01435 1.128088,0.382531 0.138138,0.340093 0.276652,0.680129 0.415538,1.020107 -0.0092,0.0031 -0.01845,0.0061 -0.02768,0.0092 -0.483104,0.160901 -0.998372,-0.01331 -1.150127,-0.388012 z m 1.080975,0.08006 c -0.137165,-0.336274 -0.273965,-0.672606 -0.410397,-1.008993 0.014,-0.0047 0.02801,-0.0093 0.04201,-0.01398 0.473444,-0.157617 0.978642,0.01192 1.12911,0.379753 0.13898,0.339766 0.27834,0.679474 0.41806,1.019123 -0.009,0.0031 -0.0184,0.0062 -0.0277,0.0093 -0.482727,0.162092 -0.998442,-0.01085 -1.151133,-0.385188 z m 1.081213,0.07739 c -0.13799,-0.33595 -0.27563,-0.671958 -0.412901,-1.008021 0.01399,-0.0047 0.02799,-0.0094 0.04198,-0.01409 0.47308,-0.158792 0.97873,0.0095 1.1301,0.376997 0.13983,0.339439 0.28002,0.67882 0.42058,1.018143 -0.009,0.0031 -0.0184,0.0062 -0.0276,0.0094 -0.48234,0.163272 -0.9985,-0.0084 -1.15212,-0.382387 z m 1.08146,0.07475 c -0.13883,-0.335627 -0.27729,-0.671311 -0.41539,-1.007052 0.014,-0.0047 0.028,-0.0095 0.0419,-0.01419 0.47273,-0.159953 0.97882,0.0071 1.13109,0.374266 0.14065,0.339114 0.28167,0.678168 0.42304,1.017164 -0.009,0.0031 -0.0184,0.0063 -0.0276,0.0094 -0.48196,0.16444 -0.99855,-0.006 -1.15308,-0.37961 z m 1.08167,0.07213 c -0.13963,-0.335304 -0.27892,-0.670666 -0.41784,-1.006085 0.014,-0.0048 0.0279,-0.0095 0.0419,-0.01429 0.47238,-0.161103 0.9789,0.0048 1.13206,0.371558 0.14148,0.338789 0.28331,0.677519 0.4255,1.016189 -0.009,0.0032 -0.0184,0.0063 -0.0276,0.0095 -0.48159,0.165594 -0.9986,-0.0036 -1.15404,-0.376858 z m 1.08189,0.06954 c -0.14044,-0.334983 -0.28053,-0.670023 -0.42027,-1.005122 0.014,-0.0048 0.0279,-0.0096 0.0419,-0.01439 0.47201,-0.16224 0.97897,0.0025 1.133,0.368875 0.14229,0.338465 0.28493,0.67687 0.42792,1.015216 -0.009,0.0032 -0.0184,0.0064 -0.0276,0.0096 -0.4812,0.166736 -0.99863,-0.0012 -1.15497,-0.37413 z m 1.0821,0.06697 c -0.14124,-0.334661 -0.28213,-0.669381 -0.42267,-1.00416 0.014,-0.0048 0.0279,-0.0097 0.0419,-0.01449 0.47166,-0.163365 0.97904,1.44e-4 1.13394,0.366216 0.14309,0.338142 0.28653,0.676224 0.43032,1.014245 -0.009,0.0032 -0.0184,0.0064 -0.0275,0.0096 -0.48083,0.167865 -0.99866,0.0011 -1.15589,-0.371428 z m 1.08229,0.06443 c -0.14202,-0.334341 -0.28371,-0.668742 -0.42504,-1.003201 0.0139,-0.0049 0.0279,-0.0097 0.0418,-0.01459 0.4713,-0.164478 0.97909,-0.0021 1.13485,0.36358 0.14388,0.33782 0.28811,0.67558 0.43269,1.013279 -0.009,0.0032 -0.0184,0.0065 -0.0275,0.0097 -0.48045,0.168983 -0.99868,0.0034 -1.15679,-0.368749 z m 1.08248,0.06191 c -0.1428,-0.334022 -0.28527,-0.668104 -0.42739,-1.002245 0.0139,-0.0049 0.0279,-0.0098 0.0418,-0.01469 0.47095,-0.165578 0.97914,-0.0044 1.13575,0.360969 0.14467,0.337499 0.28968,0.674937 0.43503,1.012313 -0.009,0.0032 -0.0183,0.0065 -0.0275,0.0097 -0.48008,0.170088 -0.9987,0.0057 -1.15768,-0.366094 z m 1.08266,0.05942 c -0.14357,-0.333704 -0.28681,-0.667468 -0.42972,-1.001292 0.0139,-0.0049 0.0278,-0.0099 0.0418,-0.01479 0.4706,-0.166667 0.97919,-0.0066 1.13664,0.358381 0.14544,0.337179 0.29122,0.674296 0.43735,1.011351 -0.009,0.0033 -0.0183,0.0065 -0.0275,0.0098 -0.47969,0.17118 -0.99871,0.008 -1.15854,-0.363464 z m 1.08283,0.05695 c -0.14434,-0.333387 -0.28834,-0.666834 -0.43202,-1.000341 0.0139,-0.005 0.0278,-0.0099 0.0417,-0.01488 0.47025,-0.167744 0.97922,-0.0089 1.13751,0.355817 0.1462,0.336859 0.29275,0.673657 0.43963,1.010392 -0.009,0.0033 -0.0183,0.0066 -0.0275,0.0099 -0.47932,0.17226 -0.99871,0.01026 -1.15939,-0.360858 z m 1.08299,0.05451 c -0.14509,-0.333071 -0.28986,-0.666202 -0.43429,-0.999394 0.0139,-0.005 0.0278,-0.01 0.0417,-0.01498 0.4699,-0.168807 0.97926,-0.01106 1.13836,0.353278 0.14697,0.336541 0.29427,0.673019 0.4419,1.009435 -0.009,0.0033 -0.0183,0.0066 -0.0275,0.0099 -0.47894,0.173327 -0.9987,0.01249 -1.16021,-0.358276 z m 1.08313,0.05209 c -0.14583,-0.332755 -0.29134,-0.665571 -0.43653,-0.998448 0.0139,-0.005 0.0278,-0.01005 0.0417,-0.01507 0.46954,-0.169859 0.97927,-0.01323 1.13919,0.350761 0.14771,0.336223 0.29575,0.672384 0.44413,1.008482 -0.009,0.0033 -0.0183,0.0067 -0.0274,0.01 -0.47857,0.174382 -0.9987,0.0147 -1.16104,-0.355719 z m 1.08328,0.0497 c -0.14657,-0.332441 -0.29282,-0.664943 -0.43875,-0.997506 0.0139,-0.0051 0.0278,-0.01011 0.0416,-0.01516 0.46918,-0.170898 0.97929,-0.01538 1.14,0.34827 0.14846,0.335906 0.29724,0.67175 0.44634,1.00753 -0.009,0.0034 -0.0183,0.0067 -0.0274,0.01005 -0.47819,0.175424 -0.99867,0.01688 -1.16183,-0.353186 z m 1.08341,0.04733 c -0.1473,-0.332127 -0.29428,-0.664315 -0.44094,-0.996565 0.0139,-0.0051 0.0277,-0.01017 0.0416,-0.01525 0.46884,-0.171925 0.9793,-0.01751 1.14081,0.345802 0.14918,0.335591 0.29869,0.671118 0.44852,1.006582 -0.009,0.0034 -0.0183,0.0067 -0.0274,0.01011 -0.47781,0.176454 -0.99864,0.01904 -1.16261,-0.350678 z m 1.08353,0.04499 c -0.14802,-0.331814 -0.29572,-0.66369 -0.4431,-0.995628 0.0138,-0.0051 0.0277,-0.01023 0.0416,-0.01534 0.46848,-0.17294 0.9793,-0.01961 1.14159,0.343358 0.1499,0.335276 0.30013,0.670488 0.45067,1.005636 -0.009,0.0034 -0.0182,0.0068 -0.0274,0.01017 -0.47744,0.177472 -0.99861,0.02118 -1.16337,-0.348193 z m 1.08364,0.04267 c -0.14872,-0.331502 -0.29714,-0.663066 -0.44524,-0.994693 0.0139,-0.0051 0.0277,-0.01029 0.0415,-0.01543 0.46814,-0.173943 0.97929,-0.02169 1.14235,0.340938 0.15062,0.334962 0.30156,0.66986 0.45281,1.004693 -0.009,0.0034 -0.0182,0.0068 -0.0273,0.01023 -0.47706,0.178477 -0.99857,0.02329 -1.16412,-0.345734 z m 1.08374,0.04037 c -0.14942,-0.33119 -0.29854,-0.662444 -0.44734,-0.993761 0.0138,-0.0052 0.0277,-0.01035 0.0415,-0.01552 0.46779,-0.174934 0.97928,-0.02375 1.14311,0.338541 0.15132,0.334649 0.30296,0.669234 0.4549,1.003753 -0.009,0.0034 -0.0182,0.0069 -0.0273,0.01029 -0.47669,0.179469 -0.99852,0.02538 -1.16486,-0.343299 z m 1.08384,0.03811 c -0.15011,-0.330881 -0.29992,-0.661825 -0.44943,-0.992833 0.0138,-0.0052 0.0276,-0.0104 0.0415,-0.01561 0.46743,-0.175912 0.97926,-0.02578 1.14383,0.33617 0.15202,0.334337 0.30435,0.668609 0.45698,1.002815 -0.009,0.0034 -0.0182,0.0069 -0.0273,0.01034 -0.47632,0.180449 -0.99846,0.02744 -1.16557,-0.340887 z m 1.08393,0.03586 c -0.1508,-0.330571 -0.3013,-0.661207 -0.45149,-0.991906 0.0138,-0.0052 0.0276,-0.01046 0.0414,-0.01569 0.46709,-0.176879 0.97924,-0.0278 1.14455,0.333821 0.15271,0.334025 0.30572,0.667986 0.45903,1.00188 -0.009,0.0035 -0.0182,0.0069 -0.0273,0.0104 -0.47595,0.181417 -0.9984,0.02949 -1.16626,-0.3385 z m 1.08399,0.03364 c -0.15147,-0.330263 -0.30264,-0.66059 -0.45351,-0.990982 0.0138,-0.0053 0.0276,-0.01052 0.0414,-0.01578 0.46674,-0.177833 0.9792,-0.02978 1.14525,0.331496 0.15338,0.333716 0.30706,0.667366 0.46104,1.000948 -0.009,0.0035 -0.0182,0.007 -0.0272,0.01045 -0.47557,0.182372 -0.99832,0.0315 -1.16694,-0.336138 z m 1.08407,0.03145 c -0.15214,-0.329955 -0.30398,-0.659976 -0.45552,-0.99006 0.0138,-0.0053 0.0276,-0.01057 0.0414,-0.01586 0.46638,-0.178774 0.97916,-0.03175 1.14593,0.329196 0.15405,0.333406 0.3084,0.666746 0.46304,1.000019 -0.009,0.0035 -0.0181,0.007 -0.0272,0.01051 -0.4752,0.183315 -0.99825,0.0335 -1.1676,-0.3338 z m 1.08412,0.02928 c -0.15279,-0.329649 -0.30529,-0.659363 -0.4575,-0.989142 0.0138,-0.0053 0.0276,-0.01063 0.0413,-0.01594 0.46604,-0.179704 0.97911,-0.03369 1.1466,0.32692 0.15471,0.333097 0.30971,0.666128 0.465,0.999091 -0.009,0.0035 -0.0181,0.007 -0.0272,0.01056 -0.47482,0.184245 -0.99816,0.03547 -1.16824,-0.331486 z m 1.08417,0.02713 c -0.15344,-0.329343 -0.30659,-0.658752 -0.45945,-0.988226 0.0138,-0.0053 0.0275,-0.01068 0.0413,-0.01602 0.4657,-0.18062 0.97906,-0.03561 1.14725,0.324668 0.15536,0.33279 0.31101,0.665513 0.46695,0.998167 -0.009,0.0035 -0.0181,0.0071 -0.0272,0.01061 -0.47446,0.185162 -0.99807,0.03742 -1.16887,-0.329197 z m 1.0842,0.02501 c -0.15407,-0.329038 -0.30786,-0.658142 -0.46137,-0.987313 0.0138,-0.0054 0.0275,-0.01073 0.0413,-0.0161 0.46535,-0.181526 0.979,-0.03751 1.14788,0.322438 0.156,0.332484 0.31229,0.664899 0.46886,0.997247 -0.009,0.0036 -0.0181,0.0071 -0.0272,0.01066 -0.47408,0.186068 -0.99797,0.03935 -1.16948,-0.326932 z m 1.08423,0.02292 c -0.1547,-0.328735 -0.30912,-0.657536 -0.46327,-0.986403 0.0138,-0.0054 0.0275,-0.01079 0.0413,-0.01618 0.465,-0.182418 0.97892,-0.03938 1.14849,0.320234 0.15663,0.332178 0.31355,0.664287 0.47075,0.996328 -0.009,0.0036 -0.0181,0.0071 -0.0272,0.01071 -0.47372,0.186961 -0.99786,0.04125 -1.17008,-0.32469 z m 1.08426,0.02085 c -0.15533,-0.328431 -0.31037,-0.656929 -0.46515,-0.985494 0.0138,-0.0054 0.0275,-0.01084 0.0412,-0.01626 0.46465,-0.183299 0.97884,-0.04123 1.14909,0.318053 0.15726,0.331873 0.31479,0.663677 0.4726,0.995412 -0.009,0.0036 -0.0181,0.0072 -0.0271,0.01076 -0.47335,0.187841 -0.99775,0.04313 -1.17065,-0.322475 z m 1.08426,0.0188 c -0.15594,-0.328129 -0.3116,-0.656326 -0.46699,-0.98459 0.0137,-0.0054 0.0275,-0.01089 0.0412,-0.01634 0.4643,-0.184166 0.97876,-0.04306 1.14967,0.315897 0.15787,0.331569 0.31602,0.663069 0.47443,0.994499 -0.009,0.0036 -0.0181,0.0072 -0.0271,0.01081 -0.47298,0.188709 -0.99763,0.04499 -1.17121,-0.320282 z m 1.08426,0.01678 c -0.15654,-0.327828 -0.3128,-0.655724 -0.4688,-0.983687 0.0137,-0.0055 0.0274,-0.01094 0.0412,-0.01641 0.46396,-0.185023 0.97867,-0.04486 1.15024,0.313764 0.15847,0.331266 0.31722,0.662462 0.47624,0.993588 -0.009,0.0036 -0.0181,0.0072 -0.0271,0.01086 -0.47261,0.189565 -0.9975,0.04682 -1.17176,-0.318114 z m 1.08425,0.01479 c -0.15713,-0.327528 -0.31399,-0.655124 -0.47059,-0.982788 0.0137,-0.0055 0.0274,-0.01099 0.0411,-0.01649 0.46361,-0.185867 0.97857,-0.04665 1.15078,0.311655 0.15908,0.330963 0.31842,0.661857 0.47803,0.99268 -0.009,0.0036 -0.018,0.0073 -0.0271,0.01091 -0.47223,0.190407 -0.99736,0.04863 -1.17228,-0.315971 z m 1.08424,0.01281 c -0.15771,-0.327228 -0.31517,-0.654525 -0.47236,-0.98189 0.0137,-0.0055 0.0274,-0.01104 0.0411,-0.01656 0.46327,-0.186699 0.97847,-0.04841 1.15131,0.30957 0.15967,0.330662 0.31959,0.661254 0.47978,0.991775 -0.009,0.0037 -0.018,0.0073 -0.027,0.01096 -0.47187,0.191238 -0.99722,0.05041 -1.17279,-0.313852 z m 1.08421,0.01087 c -0.15829,-0.326929 -0.31633,-0.653928 -0.4741,-0.980996 0.0137,-0.0055 0.0274,-0.01109 0.0411,-0.01664 0.46292,-0.187517 0.97835,-0.05014 1.15183,0.307509 0.16024,0.330362 0.32074,0.660653 0.4815,0.990873 -0.009,0.0037 -0.018,0.0073 -0.027,0.01101 -0.47151,0.192056 -0.99708,0.05218 -1.17328,-0.311757 z m 1.08417,0.0089 c -0.15886,-0.326632 -0.31746,-0.653334 -0.47582,-0.980105 0.0137,-0.0056 0.0274,-0.01114 0.041,-0.01671 0.46258,-0.188325 0.97824,-0.05185 1.15233,0.305472 0.16081,0.330063 0.32188,0.660054 0.4832,0.989973 -0.009,0.0037 -0.018,0.0074 -0.027,0.01105 -0.47114,0.192861 -0.99691,0.05391 -1.17375,-0.309687 z m 1.08412,0.0071 c -0.15941,-0.326335 -0.31858,-0.65274 -0.4775,-0.979215 0.0137,-0.0056 0.0273,-0.01118 0.041,-0.01678 0.46224,-0.189119 0.97811,-0.05354 1.15281,0.303459 0.16137,0.329764 0.323,0.659456 0.48487,0.989076 -0.009,0.0037 -0.018,0.0074 -0.027,0.0111 -0.47077,0.193655 -0.99675,0.05563 -1.17421,-0.307641 z m 1.08407,0.0052 c -0.15996,-0.32604 -0.31968,-0.65215 -0.47916,-0.97833 0.0137,-0.0056 0.0273,-0.01123 0.041,-0.01685 0.46189,-0.189902 0.97798,-0.05521 1.15327,0.30147 0.16193,0.329466 0.3241,0.65886 0.48652,0.988181 -0.009,0.0037 -0.018,0.0074 -0.027,0.01114 -0.4704,0.194436 -0.99658,0.05732 -1.17465,-0.305618 z m 1.084,0.0033 c -0.1605,-0.325744 -0.32077,-0.651559 -0.48079,-0.977445 0.0137,-0.0056 0.0273,-0.01128 0.041,-0.01691 0.46155,-0.190672 0.97784,-0.05685 1.15372,0.299505 0.16247,0.329169 0.32518,0.658266 0.48813,0.98729 -0.009,0.0037 -0.018,0.0075 -0.0269,0.01119 -0.47004,0.195203 -0.9964,0.05899 -1.17508,-0.303622 z m 1.08393,0.0015 c -0.16104,-0.32545 -0.32183,-0.650972 -0.48239,-0.976564 0.0136,-0.0057 0.0273,-0.01132 0.0409,-0.01698 0.26488,-0.10994 0.56184,-0.116511 0.80059,-0.01768 0,0 0,0 0,0 0.16121,0.0667 0.28516,0.177165 0.35357,0.315195 0.16301,0.328869 0.32627,0.657689 0.48977,0.986459 -0.009,0.0037 -0.0179,0.0075 -0.0269,0.01123 -0.26993,0.112621 -0.57301,0.119546 -0.81642,0.01873 0,0 0,0 0,0 -0.16389,-0.06788 -0.28973,-0.180182 -0.35911,-0.320387 z m 1.08389,-3.08e-4 c -0.16158,-0.325187 -0.32292,-0.650423 -0.48401,-0.975706 0.0136,-0.0057 0.0273,-0.01137 0.0409,-0.01706 0.46088,-0.19227 0.9776,-0.0603 1.15469,0.295482 0.16356,0.328623 0.32738,0.657195 0.49145,0.985716 -0.009,0.0038 -0.0179,0.0075 -0.0269,0.01128 -0.46944,0.196789 -0.99625,0.06226 -1.17611,-0.299713 z m 1.08395,-0.0021 c -0.16214,-0.324941 -0.32403,-0.649932 -0.48567,-0.974973 0.0136,-0.0057 0.0272,-0.01142 0.0409,-0.01713 0.46058,-0.193049 0.97755,-0.06193 1.15524,0.293571 0.16413,0.32837 0.32852,0.656688 0.49316,0.984951 -0.009,0.0038 -0.0179,0.0076 -0.0269,0.01132 -0.46915,0.197602 -0.99623,0.06396 -1.17671,-0.297748 z m 1.08403,-0.004 c -0.1627,-0.324689 -0.32515,-0.64943 -0.48736,-0.974222 0.0136,-0.0057 0.0272,-0.01146 0.0408,-0.0172 0.46027,-0.193839 0.97748,-0.06359 1.1558,0.291629 -4.1e-4,-7.99e-4 0.49528,0.984967 0.49488,0.984168 0,1e-6 -0.0269,0.01137 -0.0269,0.01137 -0.46883,0.198425 -0.99618,0.06567 -1.17729,-0.295752 z m 1.08409,-0.0058 c -0.16327,-0.324429 -0.32629,-0.648913 -0.48906,-0.97345 0.0136,-0.0058 0.0272,-0.01151 0.0408,-0.01727 0.45995,-0.194637 0.97741,-0.06527 1.15635,0.289659 0.16528,0.327846 0.33082,0.655635 0.49662,0.983365 -0.009,0.0038 -0.0179,0.0076 -0.0268,0.01142 -0.46853,0.199258 -0.99614,0.06741 -1.17788,-0.293727 z m 1.08414,-0.0077 c -0.16385,-0.324164 -0.32744,-0.648384 -0.49077,-0.972659 0.0136,-0.0058 0.0272,-0.01156 0.0408,-0.01734 0.45964,-0.195443 0.97734,-0.06698 1.1569,0.28766 0.16587,0.327574 0.33199,0.655088 0.49839,0.982542 -0.009,0.0038 -0.0179,0.0076 -0.0268,0.01147 -0.4682,0.2001 -0.99608,0.06917 -1.17846,-0.291672 z m 1.08418,-0.0096 c -0.16443,-0.323891 -0.3286,-0.647841 -0.49251,-0.971848 0.0136,-0.0058 0.0272,-0.01161 0.0408,-0.01741 0.4593,-0.196259 0.97724,-0.0687 1.15745,0.285632 -3.9e-4,-7.65e-4 0.50055,0.982464 0.50016,0.981699 -0.009,0.0038 -0.0179,0.0077 -0.0268,0.01152 -0.46786,0.20095 -0.99601,0.07095 -1.17904,-0.289588 z m 1.08422,-0.01152 c -0.16502,-0.323612 -0.32977,-0.647285 -0.49426,-0.971018 0.0136,-0.0058 0.0272,-0.01165 0.0407,-0.01748 0.45896,-0.197084 0.97713,-0.07045 1.15798,0.283574 0.16705,0.32701 0.33437,0.653956 0.50196,0.980837 -0.009,0.0039 -0.0179,0.0077 -0.0268,0.01156 -0.46752,0.20181 -0.99593,0.07275 -1.17961,-0.287475 z m 1.08424,-0.01348 c -3.8e-4,-7.35e-4 -0.49565,-0.969432 -0.49603,-0.970168 0.0136,-0.0059 0.0271,-0.0117 0.0407,-0.01756 0.45861,-0.197918 0.97702,-0.07222 1.15852,0.281487 -3.8e-4,-7.43e-4 0.50416,0.980699 0.50378,0.979956 0,0 -0.0268,0.01161 -0.0268,0.01161 -0.46717,0.202678 -0.99584,0.07458 -1.18019,-0.285333 z m 1.08426,-0.01546 c -3.7e-4,-7.25e-4 -0.49745,-0.968573 -0.49782,-0.969299 0,1e-6 0.0407,-0.01763 0.0406,-0.01763 0.45826,-0.19876 0.97691,-0.07401 1.15907,0.279372 0.16826,0.32642 0.33679,0.652771 0.5056,0.979054 -0.009,0.0039 -0.0178,0.0078 -0.0267,0.01167 -0.46681,0.203556 -0.99574,0.07643 -1.18075,-0.28316 z m 1.08426,-0.01746 c -0.16681,-0.322736 -0.33336,-0.64554 -0.49963,-0.96841 0.0135,-0.0059 0.0271,-0.0118 0.0406,-0.01771 0.45788,-0.199612 0.97677,-0.07583 1.15959,0.277228 0.16888,0.326114 0.33803,0.652159 0.50746,0.978132 -0.009,0.0039 -0.0178,0.0078 -0.0267,0.01172 -0.46644,0.204443 -0.99563,0.0783 -1.18132,-0.280958 z m 1.08426,-0.01949 c -0.16742,-0.322431 -0.33458,-0.644932 -0.50145,-0.967502 0.0135,-0.0059 0.0271,-0.01185 0.0406,-0.01778 0.45751,-0.200472 0.97663,-0.07766 1.16012,0.275054 -3.7e-4,-7.13e-4 0.5097,0.977904 0.50933,0.977191 -0.009,0.0039 -0.0178,0.0078 -0.0267,0.01177 -0.46608,0.205339 -0.99552,0.08019 -1.18189,-0.278726 z m 1.08425,-0.02154 c -0.16805,-0.322121 -0.33581,-0.644312 -0.5033,-0.966574 0.0135,-0.006 0.027,-0.01191 0.0406,-0.01786 0.45713,-0.201342 0.97648,-0.07952 1.16065,0.272851 0.17012,0.325485 0.34052,0.650895 0.51122,0.97623 -0.009,0.0039 -0.0178,0.0079 -0.0267,0.01182 -0.46568,0.206244 -0.99538,0.08211 -1.18244,-0.276464 z m 1.08422,-0.02362 c -3.6e-4,-6.87e-4 -0.5048,-0.964941 -0.50516,-0.965627 0.0135,-0.006 0.027,-0.01196 0.0405,-0.01794 0.45675,-0.20222 0.97632,-0.0814 1.16118,0.27062 -3.6e-4,-6.95e-4 0.51349,0.975944 0.51312,0.975249 0,0 -0.0267,0.01187 -0.0267,0.01187 -0.46529,0.207158 -0.99524,0.08405 -1.183,-0.274173 z m 1.0842,-0.02573 c -3.6e-4,-6.78e-4 -0.50669,-0.963983 -0.50705,-0.96466 0,0 0.0405,-0.01802 0.0405,-0.01802 0.45634,-0.203107 0.97615,-0.0833 1.1617,0.268359 -3.6e-4,-6.85e-4 0.51541,0.974935 0.51505,0.974249 -0.009,0.004 -0.0178,0.008 -0.0266,0.01192 -0.46489,0.208081 -0.9951,0.08601 -1.18355,-0.271854 z m 1.08415,-0.02785 c -0.16993,-0.321147 -0.33958,-0.642372 -0.50894,-0.963674 0.0135,-0.006 0.027,-0.01206 0.0405,-0.0181 0.45593,-0.204003 0.97597,-0.08522 1.16221,0.266069 0.17204,0.324491 0.34437,0.648901 0.517,0.973229 -0.009,0.004 -0.0177,0.008 -0.0266,0.01198 -0.46448,0.209013 -0.99493,0.08799 -1.1841,-0.269504 z m 1.0841,-0.03001 c -3.5e-4,-6.6e-4 -0.51051,-0.962008 -0.51086,-0.962668 0.0135,-0.0061 0.0269,-0.01212 0.0404,-0.01818 0.45552,-0.204908 0.97578,-0.08717 1.16273,0.263751 -3.6e-4,-6.68e-4 0.51931,0.972857 0.51895,0.972189 0,0 -0.0266,0.01203 -0.0266,0.01203 -0.46406,0.209955 -0.99477,0.08999 -1.18465,-0.267124 z m 1.08404,-0.03218 c -3.4e-4,-6.51e-4 -0.51244,-0.960991 -0.51279,-0.961643 0,10e-7 0.0404,-0.01826 0.0404,-0.01826 0.45509,-0.205822 0.97558,-0.08914 1.16324,0.261403 0.17334,0.323795 0.34698,0.647505 0.52093,0.971129 -0.009,0.004 -0.0177,0.0081 -0.0266,0.01209 -0.46364,0.210906 -0.99459,0.09202 -1.1852,-0.264715 z m 1.08398,-0.03439 c -3.5e-4,-6.43e-4 -0.51441,-0.959955 -0.51475,-0.960598 0.0134,-0.0061 0.0269,-0.01223 0.0403,-0.01834 0.45466,-0.206745 0.97537,-0.09112 1.16375,0.259026 0.174,0.323437 0.34831,0.646788 0.52293,0.97005 0,0 -0.0265,0.01214 -0.0265,0.01214 -0.4632,0.211865 -0.9944,0.09407 -1.18573,-0.262277 z m 1.08389,-0.03661 c -0.17253,-0.319759 -0.34478,-0.639604 -0.51672,-0.959534 0.0134,-0.0061 0.0269,-0.01228 0.0403,-0.01843 0.45423,-0.207677 0.97515,-0.09314 1.16426,0.25662 -3.5e-4,-6.43e-4 0.5253,0.969594 0.52495,0.968951 -0.009,0.0041 -0.0177,0.0081 -0.0265,0.0122 -0.46276,0.212835 -0.9942,0.09614 -1.18627,-0.259808 z m 1.08381,-0.03887 c -0.1732,-0.319396 -0.34611,-0.63888 -0.51871,-0.958451 0.0134,-0.0062 0.0268,-0.01234 0.0403,-0.01851 0.45377,-0.208617 0.97492,-0.09517 1.16476,0.254185 0.17535,0.322702 0.35101,0.645313 0.52698,0.967832 -0.009,0.0041 -0.0177,0.0082 -0.0265,0.01225 -0.4623,0.213812 -0.99399,0.09823 -1.1868,-0.257311 z m 1.08371,-0.04114 c -0.17387,-0.319027 -0.34745,-0.638143 -0.52072,-0.957348 0.0134,-0.0062 0.0268,-0.01239 0.0402,-0.01859 0.45332,-0.209568 0.97469,-0.09722 1.16526,0.25172 -3.5e-4,-6.27e-4 0.52938,0.967322 0.52904,0.966694 0,1e-6 -0.0265,0.01231 -0.0265,0.01231 -0.46184,0.214799 -0.99377,0.100351 -1.18733,-0.254783 z m 1.08361,-0.04345 c -3.4e-4,-6.12e-4 -0.52241,-0.955613 -0.52275,-0.956225 0,10e-7 0.0402,-0.01868 0.0402,-0.01868 0.45285,-0.210526 0.97443,-0.0993 1.16575,0.249226 0.17672,0.321942 0.35376,0.643788 0.53111,0.965537 -0.009,0.0041 -0.0176,0.0082 -0.0264,0.01237 -0.46138,0.215795 -0.99355,0.102489 -1.18786,-0.252227 z m 1.08349,-0.04577 c -3.3e-4,-6.04e-4 -0.52446,-0.954478 -0.5248,-0.955082 0.0134,-0.0063 0.0268,-0.01251 0.0401,-0.01876 0.45238,-0.211493 0.97418,-0.1014 1.16624,0.246705 0.17742,0.321551 0.35515,0.643004 0.53321,0.964358 -0.009,0.0041 -0.0176,0.0083 -0.0264,0.01242 -0.4609,0.2168 -0.99331,0.10465 -1.18838,-0.249641 z m 1.08336,-0.04812 c -0.17593,-0.317878 -0.35155,-0.635852 -0.52685,-0.953921 0.0134,-0.0063 0.0267,-0.01257 0.0401,-0.01885 0.45189,-0.21247 0.97391,-0.103522 1.16673,0.244153 0.17812,0.321153 0.35655,0.642208 0.53532,0.963161 0,0 -0.0264,0.01248 -0.0264,0.01248 -0.46041,0.217815 -0.99306,0.106833 -1.18891,-0.247024 z m 1.08323,-0.0505 c -3.3e-4,-5.9e-4 -0.52861,-0.95215 -0.52894,-0.95274 0,1e-6 0.0401,-0.01894 0.0401,-0.01894 0.4514,-0.213455 0.97363,-0.105664 1.16721,0.241572 -3.3e-4,-5.97e-4 0.53778,0.962542 0.53745,0.961944 0,1e-6 -0.0264,0.01254 -0.0264,0.01254 -0.45991,0.218837 -0.9928,0.109038 -1.18942,-0.24438 z m 1.08309,-0.0529 c -3.3e-4,-5.83e-4 -0.53071,-0.950956 -0.53104,-0.951539 0,0 0.04,-0.01903 0.04,-0.01903 0.4509,-0.214449 0.97334,-0.107829 1.1677,0.238963 -3.3e-4,-5.9e-4 0.53992,0.961298 0.53959,0.960707 0,10e-7 -0.0263,0.0126 -0.0263,0.0126 -0.45941,0.219871 -0.99253,0.111266 -1.18993,-0.241704 z m 1.08293,-0.05533 c -3.2e-4,-5.76e-4 -0.53283,-0.949742 -0.53315,-0.950319 0,10e-7 0.04,-0.01912 0.04,-0.01911 0.4504,-0.215453 0.97304,-0.110016 1.16818,0.236324 -3.3e-4,-5.83e-4 0.54208,0.960034 0.54175,0.959451 -0.009,0.0042 -0.0175,0.0084 -0.0263,0.01266 -0.4589,0.220912 -0.99225,0.113516 -1.19045,-0.239 z m 1.08277,-0.05778 c -0.17875,-0.316255 -0.35718,-0.632615 -0.53529,-0.949079 0.0133,-0.0064 0.0266,-0.0128 0.0399,-0.0192 0.44988,-0.216464 0.97274,-0.112224 1.16866,0.233657 0.18097,0.3195 0.36228,0.638892 0.54393,0.958174 -0.009,0.0042 -0.0175,0.0085 -0.0263,0.01272 -0.45838,0.221963 -0.99196,0.115789 -1.19096,-0.236266 z m 1.0826,-0.06026 c -0.17947,-0.315834 -0.35862,-0.631774 -0.53744,-0.94782 0.0133,-0.0064 0.0266,-0.01286 0.0399,-0.01929 0.44935,-0.217486 0.97242,-0.114455 1.16913,0.23096 0.18171,0.31907 0.36375,0.63803 0.54614,0.956878 -0.009,0.0043 -0.0175,0.0085 -0.0262,0.01278 -0.45785,0.223022 -0.99166,0.118082 -1.19146,-0.233503 z m 1.08242,-0.06276 c -0.1802,-0.315405 -0.36007,-0.63092 -0.53961,-0.946541 0.0133,-0.0065 0.0266,-0.01292 0.0398,-0.01939 0.44882,-0.218516 0.97209,-0.116708 1.1696,0.228234 0.18244,0.318634 0.36523,0.637155 0.54836,0.955563 -0.009,0.0043 -0.0175,0.0086 -0.0262,0.01284 -0.45731,0.224092 -0.99135,0.1204 -1.19196,-0.230709 z m 1.08223,-0.06529 c -0.18094,-0.314971 -0.36154,-0.630052 -0.54181,-0.945243 0.0133,-0.0065 0.0265,-0.01299 0.0398,-0.01948 0.44828,-0.219555 0.97175,-0.118983 1.17006,0.225479 0.18319,0.318191 0.36672,0.636267 0.5506,0.954227 -0.009,0.0043 -0.0174,0.0086 -0.0262,0.0129 -0.45677,0.225169 -0.99104,0.122738 -1.19246,-0.227887 z m 1.08203,-0.06784 c -0.18168,-0.314529 -0.36301,-0.629172 -0.54402,-0.943925 0.0132,-0.0065 0.0265,-0.01305 0.0397,-0.01957 0.44773,-0.220602 0.97141,-0.121279 1.17053,0.222696 0.18394,0.317741 0.36822,0.635365 0.55285,0.952872 -0.009,0.0043 -0.0174,0.0086 -0.0261,0.01297 -0.45621,0.226256 -0.99071,0.1251 -1.19295,-0.225035 z m 1.08182,-0.07041 c -0.18242,-0.314082 -0.3645,-0.628278 -0.54624,-0.942589 0.0132,-0.0066 0.0265,-0.01311 0.0397,-0.01967 0.44718,-0.221659 0.97105,-0.123597 1.17099,0.219883 0.1847,0.317285 0.36974,0.634451 0.55513,0.951497 -0.009,0.0043 -0.0174,0.0087 -0.0261,0.01303 -0.45564,0.227353 -0.99037,0.127484 -1.19344,-0.222152 z m 1.0816,-0.07301 c -0.18317,-0.313628 -0.366,-0.627372 -0.54849,-0.941232 0.0132,-0.0066 0.0264,-0.01317 0.0396,-0.01976 0.44661,-0.222724 0.97068,-0.125938 1.17145,0.217042 0.18545,0.316821 0.37126,0.633522 0.55742,0.950101 -0.009,0.0044 -0.0174,0.0087 -0.0261,0.01309 -0.45507,0.228458 -0.99002,0.12989 -1.19393,-0.219241 z m 1.08138,-0.07564 c -0.18394,-0.313166 -0.36752,-0.626452 -0.55076,-0.939855 0.0132,-0.0066 0.0264,-0.01324 0.0396,-0.01986 0.44603,-0.223799 0.97031,-0.128301 1.1719,0.21417 0.18622,0.316353 0.3728,0.632582 0.55973,0.948687 -0.009,0.0044 -0.0174,0.0088 -0.026,0.01315 -0.45449,0.229572 -0.98966,0.132318 -1.19441,-0.216301 z m 1.08113,-0.07829 c -0.18469,-0.312699 -0.36904,-0.625519 -0.55303,-0.93846 0.0132,-0.0067 0.0264,-0.0133 0.0395,-0.01995 0.44545,-0.224882 0.96992,-0.130685 1.17236,0.21127 0.18699,0.315877 0.37434,0.631628 0.56206,0.947253 -0.009,0.0044 -0.0173,0.0088 -0.026,0.01322 -0.4539,0.230696 -0.9893,0.134769 -1.1949,-0.21333 z m 1.08089,-0.08096 c -0.18546,-0.312225 -0.37057,-0.624573 -0.55533,-0.937044 0.0132,-0.0067 0.0263,-0.01337 0.0395,-0.02005 0.44486,-0.225975 0.96953,-0.133092 1.1728,0.208341 0.18778,0.315394 0.37591,0.630661 0.56441,0.945799 -0.009,0.0044 -0.0173,0.0089 -0.026,0.01328 -0.45331,0.231828 -0.98892,0.137242 -1.19538,-0.210331 z m 1.08064,-0.08366 c -0.18624,-0.311745 -0.37213,-0.623615 -0.55766,-0.93561 0.0131,-0.0067 0.0263,-0.01343 0.0394,-0.02015 0.44425,-0.227076 0.96911,-0.13552 1.17324,0.205383 0.18856,0.314905 0.37749,0.629681 0.56678,0.944326 -0.009,0.0044 -0.0173,0.0089 -0.0259,0.01335 -0.4527,0.23297 -0.98853,0.139737 -1.19585,-0.207301 z m 1.08037,-0.08639 c -0.18703,-0.311258 -0.37369,-0.622644 -0.55999,-0.934155 0.0131,-0.0067 0.0262,-0.0135 0.0394,-0.02025 0.44365,-0.228186 0.96871,-0.13797 1.17369,0.202395 0.18935,0.31441 0.37907,0.628688 0.56917,0.942833 -0.009,0.0045 -0.0173,0.0089 -0.0259,0.01342 -0.45208,0.234121 -0.98813,0.142254 -1.19632,-0.204242 z m 1.08009,-0.08914 c -0.18781,-0.310765 -0.37526,-0.62166 -0.56234,-0.932682 0.0131,-0.0068 0.0262,-0.01356 0.0393,-0.02034 0.44303,-0.229305 0.96828,-0.140443 1.17413,0.199379 0.19015,0.313907 0.38067,0.627681 0.57156,0.94132 -0.009,0.0045 -0.0172,0.009 -0.0259,0.01348 -0.45147,0.23528 -0.98773,0.144794 -1.1968,-0.201153 z m 1.07981,-0.09191 c -0.1886,-0.310265 -0.37684,-0.620662 -0.56471,-0.931189 0.0131,-0.0068 0.0262,-0.01363 0.0393,-0.02045 0.44241,-0.230433 0.96785,-0.142937 1.17457,0.196333 0.19095,0.313399 0.38228,0.626662 0.57399,0.939788 -0.009,0.0045 -0.0172,0.009 -0.0258,0.01355 -0.45084,0.236449 -0.98731,0.147356 -1.19727,-0.198035 z m 1.07952,-0.09471 c -0.1894,-0.309758 -0.37844,-0.619651 -0.56711,-0.929676 0.0131,-0.0068 0.0261,-0.0137 0.0392,-0.02055 0.44177,-0.23157 0.96739,-0.145453 1.17499,0.193259 0.19176,0.312884 0.38391,0.625629 0.57643,0.938235 -0.009,0.0045 -0.0172,0.0091 -0.0258,0.01362 -0.4502,0.237627 -0.98688,0.14994 -1.19773,-0.194888 z m 1.07922,-0.09753 c -0.19021,-0.309246 -0.38005,-0.618628 -0.56952,-0.928144 0.013,-0.0069 0.0261,-0.01376 0.0392,-0.02065 0.44113,-0.232716 0.96694,-0.147991 1.17542,0.190156 0.19258,0.312361 0.38554,0.624582 0.57889,0.936663 -0.009,0.0046 -0.0172,0.0091 -0.0258,0.01368 -0.44954,0.238815 -0.98644,0.152547 -1.19818,-0.19171 z m 1.0789,-0.100383 c -0.19102,-0.308727 -0.38167,-0.617592 -0.57194,-0.926593 0.013,-0.0069 0.0261,-0.01383 0.0391,-0.02075 0.44047,-0.233871 0.96647,-0.150551 1.17584,0.187023 0.19341,0.311833 0.3872,0.623524 0.58137,0.935071 -0.009,0.0046 -0.0171,0.0092 -0.0257,0.01375 -0.44888,0.240011 -0.98599,0.155176 -1.19864,-0.188503 z m 1.07858,-0.103258 c -0.19184,-0.3082 -0.3833,-0.616541 -0.57439,-0.925021 0.013,-0.007 0.026,-0.0139 0.039,-0.02085 0.43982,-0.235034 0.96601,-0.153133 1.17628,0.183862 0.19423,0.311298 0.38885,0.622451 0.58386,0.933459 -0.009,0.0046 -0.0171,0.0092 -0.0257,0.01382 -0.44822,0.241216 -0.98554,0.157827 -1.1991,-0.185268 z m 1.07826,-0.106155 c -0.19267,-0.307669 -0.38495,-0.61548 -0.57686,-0.923431 0.013,-0.007 0.026,-0.01397 0.039,-0.02096 0.43916,-0.236207 0.96553,-0.155737 1.1767,0.180671 0.19506,0.310756 0.39052,0.621366 0.58637,0.931828 -0.009,0.0046 -0.0171,0.0093 -0.0256,0.01389 -0.44755,0.242431 -0.98507,0.160501 -1.19954,-0.182001 z m 1.07791,-0.10908 c -0.1935,-0.30713 -0.38661,-0.614403 -0.57934,-0.92182 0.013,-0.007 0.0259,-0.01404 0.0389,-0.02106 0.43847,-0.237388 0.96502,-0.158363 1.1771,0.177451 0.19591,0.310208 0.39221,0.620268 0.58891,0.930177 -0.009,0.0047 -0.0171,0.0093 -0.0256,0.01396 -0.44686,0.243655 -0.98459,0.163197 -1.19999,-0.178706 z m 1.07756,-0.112028 c -0.19433,-0.306584 -0.38827,-0.613315 -0.58183,-0.92019 0.013,-0.0071 0.0259,-0.01411 0.0389,-0.02117 0.43779,-0.238578 0.96452,-0.161011 1.17752,0.174203 0.19676,0.309653 0.39391,0.619155 0.59146,0.928506 -0.009,0.0047 -0.017,0.0094 -0.0256,0.01403 -0.44617,0.244887 -0.98411,0.165915 -1.20044,-0.175381 z m 1.07721,-0.115001 c -0.19518,-0.306032 -0.38996,-0.612213 -0.58436,-0.918541 0.0129,-0.0071 0.0259,-0.01418 0.0388,-0.02128 0.43711,-0.239778 0.96401,-0.163681 1.17794,0.170924 0.19761,0.309092 0.39561,0.618031 0.59403,0.926816 -0.009,0.0047 -0.017,0.0094 -0.0255,0.0141 -0.44547,0.246129 -0.9836,0.168655 -1.20087,-0.172027 z m 1.07683,-0.117999 c -0.19602,-0.305474 -0.39165,-0.611099 -0.58688,-0.916872 0.0129,-0.0071 0.0258,-0.01425 0.0387,-0.02138 0.4364,-0.240986 0.96349,-0.166373 1.17834,0.167618 0.19847,0.308524 0.39734,0.616893 0.59662,0.925106 -0.008,0.0047 -0.017,0.0094 -0.0255,0.01417 -0.44477,0.24738 -0.9831,0.171418 -1.20132,-0.168643 z m 1.07646,-0.121022 c -0.19687,-0.304909 -0.39335,-0.609971 -0.58944,-0.915184 0.0129,-0.0072 0.0258,-0.01433 0.0387,-0.02149 0.43569,-0.242203 0.96295,-0.169087 1.17874,0.164282 0.19933,0.307949 0.39907,0.615742 0.59922,0.923376 -0.008,0.0047 -0.017,0.0095 -0.0254,0.01425 -0.44405,0.24864 -0.98258,0.174203 -1.20175,-0.165229 z m 1.07608,-0.12407 c -0.19774,-0.304338 -0.39508,-0.608831 -0.59202,-0.913476 0.0129,-0.0072 0.0257,-0.0144 0.0386,-0.0216 0.43498,-0.243429 0.96241,-0.171823 1.17915,0.160917 0.2002,0.307368 0.40082,0.614577 0.60185,0.921626 -0.008,0.0048 -0.0169,0.0095 -0.0254,0.01432 -0.44333,0.249909 -0.98206,0.17701 -1.20218,-0.161786 z m 1.07567,-0.127142 c -0.1986,-0.303761 -0.3968,-0.607678 -0.5946,-0.91175 0.0128,-0.0072 0.0257,-0.01447 0.0385,-0.02171 0.43425,-0.244664 0.96186,-0.174581 1.17955,0.157523 0.20108,0.30678 0.40258,0.6134 0.60449,0.919857 -0.008,0.0048 -0.0169,0.0096 -0.0254,0.01439 -0.44259,0.251187 -0.98152,0.17984 -1.20261,-0.158313 z m 1.07528,-0.13024 c -0.19948,-0.303176 -0.39855,-0.606511 -0.59722,-0.910003 0.0128,-0.0073 0.0256,-0.01455 0.0385,-0.02182 0.43352,-0.245908 0.9613,-0.17736 1.17994,0.1541 0.20197,0.306186 0.40435,0.61221 0.60715,0.918068 -0.008,0.0048 -0.0169,0.0096 -0.0253,0.01447 -0.44185,0.252474 -0.98097,0.182692 -1.20303,-0.154811 z m 1.07486,-0.133362 c -0.20036,-0.302586 -0.40031,-0.605332 -0.59985,-0.908237 0.0128,-0.0073 0.0256,-0.01462 0.0384,-0.02193 0.43277,-0.247161 0.96072,-0.180162 1.18032,0.150647 0.20286,0.305586 0.40614,0.611006 0.60984,0.91626 -0.008,0.0048 -0.0168,0.0097 -0.0253,0.01454 -0.4411,0.253771 -0.98042,0.185566 -1.20345,-0.151279 z m 1.07443,-0.13651 c -0.20124,-0.301988 -0.40207,-0.604139 -0.60249,-0.906451 0.0128,-0.0073 0.0256,-0.01469 0.0383,-0.02204 0.43202,-0.248422 0.96014,-0.182986 1.18071,0.147166 0.20376,0.304978 0.40794,0.609789 0.61254,0.914431 -0.008,0.0049 -0.0168,0.0097 -0.0252,0.01461 -0.44033,0.255076 -0.97985,0.188462 -1.20387,-0.147718 z m 1.074,-0.139681 c -0.20213,-0.301385 -0.40385,-0.602934 -0.60515,-0.904646 0.0128,-0.0074 0.0255,-0.01477 0.0383,-0.02216 0.43126,-0.249693 0.95955,-0.185832 1.1811,0.143656 0.20466,0.304364 0.40974,0.608559 0.61525,0.912583 -0.008,0.0049 -0.0168,0.0098 -0.0252,0.01469 -0.43957,0.256392 -0.97927,0.191382 -1.20429,-0.144126 z m 1.07356,-0.142879 c -0.20303,-0.300774 -0.40564,-0.601715 -0.60784,-0.902821 0.0127,-0.0074 0.0255,-0.01485 0.0382,-0.02227 0.43049,-0.250972 0.95895,-0.188699 1.18148,0.140117 0.20557,0.303744 0.41156,0.607316 0.61798,0.910715 -0.008,0.0049 -0.0168,0.0098 -0.0251,0.01477 -0.43879,0.257715 -0.97869,0.194323 -1.2047,-0.140506 z m 1.0731,-0.1461 c -0.20393,-0.300157 -0.40744,-0.600483 -0.61053,-0.900977 0.0127,-0.0075 0.0254,-0.01492 0.0381,-0.02238 0.42972,-0.252261 0.95834,-0.191589 1.18187,0.136548 0.20648,0.303117 0.41339,0.60606 0.62073,0.908828 -0.008,0.0049 -0.0167,0.0099 -0.0251,0.01484 -0.438,0.259048 -0.97809,0.197286 -1.20511,-0.136856 z m 1.07265,-0.149347 c -0.20484,-0.299534 -0.40926,-0.599239 -0.61325,-0.899113 0.0127,-0.0075 0.0254,-0.015 0.0381,-0.0225 0.42894,-0.253558 0.95772,-0.1945 1.18224,0.132951 0.2074,0.302483 0.41524,0.60479 0.62351,0.90692 -0.008,0.005 -0.0167,0.0099 -0.025,0.01492 -0.43721,0.26039 -0.97748,0.200271 -1.20551,-0.133177 z m 1.07217,-0.152618 c -0.20575,-0.298904 -0.41108,-0.597981 -0.61599,-0.89723 0.0127,-0.0075 0.0253,-0.01508 0.038,-0.02262 0.42814,-0.254864 0.95708,-0.197433 1.18261,0.129324 0.20833,0.301843 0.41709,0.603508 0.6263,0.904994 -0.008,0.005 -0.0167,0.01 -0.025,0.015 -0.43641,0.26174 -0.97686,0.203279 -1.20592,-0.129468 z m 1.0717,-0.155915 c -0.20668,-0.298267 -0.41293,-0.59671 -0.61875,-0.895327 0.0127,-0.0076 0.0253,-0.01515 0.0379,-0.02273 0.42734,-0.25618 0.95644,-0.20039 1.18298,0.125668 0.20926,0.301196 0.41896,0.602212 0.62911,0.903047 -0.008,0.005 -0.0166,0.01005 -0.025,0.01507 -0.4356,0.263101 -0.97623,0.20631 -1.20631,-0.125729 z m 1.0712,-0.159235 c -0.2076,-0.297625 -0.41477,-0.595428 -0.62152,-0.893406 0.0126,-0.0076 0.0252,-0.01523 0.0379,-0.02285 0.42653,-0.257504 0.95579,-0.203367 1.18334,0.121983 0.21021,0.300543 0.42085,0.600904 0.63194,0.90108 -0.008,0.0051 -0.0166,0.0101 -0.0249,0.01515 -0.43478,0.26447 -0.9756,0.209362 -1.20671,-0.121961 z m 1.07071,-0.162582 c -0.20854,-0.296976 -0.41664,-0.594131 -0.62431,-0.891464 0.0126,-0.0077 0.0252,-0.01531 0.0378,-0.02297 0.42572,-0.258837 0.95513,-0.206366 1.18371,0.11827 0.21115,0.299883 0.42274,0.599581 0.63478,0.899094 -0.008,0.0051 -0.0166,0.01015 -0.0249,0.01523 -0.43395,0.265849 -0.97495,0.212437 -1.2071,-0.118163 z m 1.0702,-0.165953 c -0.20948,-0.29632 -0.41852,-0.592821 -0.62712,-0.889502 0.0126,-0.0077 0.0251,-0.01539 0.0377,-0.02309 0.42489,-0.260178 0.95446,-0.209387 1.18407,0.114528 0.21209,0.299216 0.42464,0.598246 0.63764,0.897088 -0.008,0.0051 -0.0165,0.01021 -0.0248,0.01531 -0.43312,0.267236 -0.9743,0.215534 -1.20749,-0.114336 z m 1.06968,-0.169348 c -0.21042,-0.295658 -0.4204,-0.591499 -0.62995,-0.887522 0.0126,-0.0077 0.0251,-0.01547 0.0376,-0.02321 0.42405,-0.26153 0.95378,-0.212431 1.18442,0.110755 0.21306,0.298544 0.42657,0.596898 0.64053,0.895063 -0.008,0.0051 -0.0165,0.01026 -0.0248,0.01539 -0.43227,0.268633 -0.97363,0.218653 -1.20788,-0.110479 z m 1.06916,-0.172769 c -0.21138,-0.294989 -0.42231,-0.590163 -0.6328,-0.885522 0.0125,-0.0078 0.025,-0.01555 0.0376,-0.02333 0.42321,-0.262889 0.95309,-0.215496 1.18478,0.106955 0.21402,0.297864 0.4285,0.595536 0.64343,0.893017 -0.008,0.0052 -0.0165,0.01031 -0.0247,0.01547 -0.43141,0.270038 -0.97295,0.221795 -1.20825,-0.106593 z m 1.06861,-0.176214 c -0.21233,-0.294314 -0.42421,-0.588815 -0.63565,-0.883502 0.0125,-0.0078 0.025,-0.01563 0.0375,-0.02345 0.42236,-0.264258 0.95239,-0.218583 1.18513,0.103125 0.21499,0.297177 0.43044,0.594162 0.64635,0.890952 -0.008,0.0052 -0.0164,0.01037 -0.0247,0.01555 -0.43055,0.271453 -0.97226,0.224959 -1.20864,-0.102677 z m 1.06808,-0.179685 c -0.2133,-0.293631 -0.42614,-0.587453 -0.63854,-0.881463 0.0125,-0.0079 0.0249,-0.01571 0.0374,-0.02357 0.4215,-0.265636 0.95168,-0.221693 1.18547,0.09927 0.21597,0.296485 0.4324,0.592774 0.64929,0.888868 -0.008,0.0052 -0.0164,0.01042 -0.0246,0.01563 -0.42968,0.272877 -0.97157,0.228145 -1.20901,-0.09873 z m 1.06752,-0.183179 c -0.21427,-0.292944 -0.42808,-0.586079 -0.64144,-0.879404 0.0124,-0.0079 0.0249,-0.0158 0.0373,-0.0237 0.42063,-0.267022 0.95096,-0.224823 1.18582,0.09538 0.21695,0.295785 0.43436,0.591373 0.65224,0.886763 -0.008,0.0052 -0.0164,0.01048 -0.0246,0.01572 -0.42881,0.27431 -0.97087,0.231354 -1.20939,-0.09476 z m 1.06695,-0.1867 c -0.21524,-0.292249 -0.43003,-0.584691 -0.64436,-0.877326 0.0124,-0.0079 0.0248,-0.01588 0.0373,-0.02382 0.41975,-0.268418 0.95023,-0.227977 1.18616,0.09146 0.21793,0.29508 0.43634,0.58996 0.65521,0.884639 -0.008,0.0053 -0.0163,0.01053 -0.0245,0.0158 -0.42792,0.275752 -0.97015,0.234585 -1.20976,-0.09075 z m 1.06638,-0.190245 c -0.21622,-0.291547 -0.43199,-0.58329 -0.64729,-0.875228 0.0124,-0.008 0.0248,-0.01596 0.0372,-0.02394 0.41887,-0.269821 0.9495,-0.231152 1.1865,0.08751 0.21893,0.294367 0.43833,0.588533 0.65821,0.882496 -0.008,0.0053 -0.0163,0.01059 -0.0245,0.01588 -0.42702,0.277204 -0.96942,0.237838 -1.21013,-0.08672 z m 1.0658,-0.193814 c -0.21721,-0.290839 -0.43396,-0.581876 -0.65025,-0.873111 0.0124,-0.008 0.0247,-0.01604 0.0371,-0.02407 0.41798,-0.271235 0.94874,-0.234349 1.18683,0.08354 0.21993,0.293648 0.44034,0.587092 0.66122,0.880331 -0.008,0.0053 -0.0163,0.01064 -0.0244,0.01597 -0.42612,0.278663 -0.96869,0.241113 -1.21049,-0.08265 z m 1.06521,-0.197408 c -0.21821,-0.290125 -0.43595,-0.580451 -0.65323,-0.870975 0.0123,-0.0081 0.0247,-0.01613 0.037,-0.02419 0.41708,-0.272657 0.94799,-0.237568 1.18716,0.07953 0.22094,0.292922 0.44236,0.585639 0.66425,0.878148 -0.008,0.0053 -0.0162,0.0107 -0.0243,0.01605 -0.42521,0.280133 -0.96794,0.244411 -1.21085,-0.07856 z m 1.0646,-0.201028 c -0.2192,-0.289405 -0.43794,-0.579011 -0.65621,-0.868819 0.0123,-0.0081 0.0246,-0.01621 0.0369,-0.02432 0.41617,-0.274089 0.94722,-0.240809 1.1875,0.0755 0.10718,0.141101 0.21447,0.282154 0.32188,0.423159 0.11501,0.150985 0.23015,0.301913 0.34541,0.452785 -0.008,0.0054 -0.0162,0.01076 -0.0243,0.01613 -0.0656,0.04355 -0.13585,0.08053 -0.20898,0.110017 -0.38927,0.156972 -0.80132,0.0808 -1.00223,-0.184454 z m 1.064,-0.204672 c -0.0613,-0.08038 -0.12261,-0.160786 -0.18385,-0.241202 -0.15871,-0.208375 -0.31717,-0.416855 -0.47538,-0.625441 0.0123,-0.0082 0.0246,-0.0163 0.0369,-0.02445 0.0885,-0.05875 0.18538,-0.105184 0.28608,-0.13717 0.3586,-0.113907 0.71843,-0.03091 0.90168,0.208615 0.22297,0.291441 0.44643,0.582661 0.6704,0.873651 -0.008,0.0054 -0.0162,0.01081 -0.0242,0.01622 -0.42333,0.283159 -0.96641,0.251133 -1.21155,-0.07022 z m 1.06333,-0.208379 c -0.22125,-0.287912 -0.442,-0.576048 -0.66227,-0.864397 0.0123,-0.0082 0.0245,-0.01638 0.0368,-0.02458 0.41424,-0.276964 0.9454,-0.247359 1.1879,0.06726 0.22403,0.290644 0.44857,0.581051 0.67364,0.871212 0,1e-6 -0.0242,0.01631 -0.0242,0.01631 -0.42231,0.284765 -0.96556,0.254698 -1.21186,-0.06581 z m 1.0626,-0.212247 c -0.22233,-0.2871 -0.44413,-0.57444 -0.66544,-0.862009 0.0122,-0.0082 0.0245,-0.01647 0.0367,-0.02471 0.41315,-0.278454 0.94432,-0.25083 1.18801,0.06288 0.22513,0.289798 0.45079,0.579344 0.67701,0.868628 -0.008,0.0055 -0.0161,0.01094 -0.0241,0.01641 -0.42122,0.286435 -0.96464,0.258421 -1.21213,-0.06119 z m 1.06178,-0.216291 c -0.22344,-0.286242 -0.44634,-0.572737 -0.66872,-0.859478 0.0122,-0.0083 0.0244,-0.01657 0.0366,-0.02485 0.412,-0.280005 0.94318,-0.254454 1.18811,0.05828 0.22626,0.288905 0.45309,0.577541 0.68049,0.8659 -0.008,0.0055 -0.016,0.011 -0.0241,0.01651 -0.42008,0.288167 -0.96364,0.2623 -1.21239,-0.05636 z m 1.06091,-0.220513 c -0.2246,-0.285334 -0.44864,-0.570938 -0.67214,-0.856803 -1e-5,4e-6 0.0365,-0.025 0.0365,-0.02499 0.41079,-0.281618 0.94196,-0.258235 1.18817,0.05348 0.22744,0.287963 0.45548,0.575642 0.6841,0.863028 0,10e-7 -0.024,0.01661 -0.024,0.01661 -0.41888,0.289964 -0.96257,0.266338 -1.21261,-0.05131 z m 1.05995,-0.224908 c -0.2258,-0.28438 -0.45102,-0.569045 -0.67568,-0.853986 0,3e-6 0.0364,-0.02515 0.0363,-0.02514 0.40951,-0.283294 0.94066,-0.26217 1.18819,0.04847 0.22868,0.286973 0.45796,0.573646 0.68786,0.86001 -0.008,0.0056 -0.016,0.01114 -0.0239,0.01671 -0.4176,0.291823 -0.96142,0.270532 -1.2128,-0.04606 z m 1.05893,-0.229481 c -0.22704,-0.283378 -0.45349,-0.567056 -0.67935,-0.851026 0.0121,-0.0084 0.0242,-0.01687 0.0362,-0.0253 0.40817,-0.285032 0.93928,-0.266261 1.18819,0.04325 0.22994,0.285935 0.46051,0.571555 0.69172,0.856849 -0.008,0.0056 -0.0159,0.01122 -0.0238,0.01682 -0.41627,0.293747 -0.9602,0.274884 -1.21297,-0.04059 z m 1.05784,-0.234229 c -0.22833,-0.282328 -0.45605,-0.564972 -0.68315,-0.847922 0.012,-0.0085 0.0241,-0.01697 0.0361,-0.02546 0.40678,-0.286831 0.93785,-0.270507 1.18817,0.03782 0.23125,0.284849 0.46316,0.569366 0.69572,0.853543 -0.008,0.0056 -0.0158,0.01129 -0.0237,0.01694 -0.41487,0.295733 -0.9589,0.279393 -1.2131,-0.03492 z m 1.05667,-0.239153 c -0.22967,-0.281231 -0.45868,-0.562793 -0.68708,-0.844676 0.012,-0.0085 0.024,-0.01708 0.036,-0.02563 0.40532,-0.288693 0.93632,-0.274908 1.18811,0.03219 0.23261,0.283714 0.46589,0.567082 0.69985,0.850092 -0.008,0.0057 -0.0158,0.01137 -0.0237,0.01705 -0.41341,0.297784 -0.95752,0.28406 -1.2132,-0.02903 z m 1.05543,-0.244253 c -0.23104,-0.280086 -0.46141,-0.560518 -0.69113,-0.841287 0.012,-0.0086 0.0239,-0.0172 0.0359,-0.0258 0.40379,-0.290617 0.93473,-0.279465 1.18802,0.02635 0.23401,0.282532 0.46871,0.564701 0.70411,0.846497 -0.008,0.0057 -0.0157,0.01145 -0.0236,0.01718 -0.41189,0.299898 -0.95607,0.288884 -1.21328,-0.02294 z m 1.05412,-0.249529 c -0.23245,-0.278893 -0.46421,-0.558147 -0.6953,-0.837755 0.0119,-0.0087 0.0238,-0.01731 0.0357,-0.02597 0.40221,-0.292603 0.93306,-0.284176 1.18791,0.0203 0.23545,0.281301 0.47161,0.562223 0.7085,0.842757 -0.008,0.0058 -0.0157,0.01153 -0.0235,0.0173 -0.41031,0.302075 -0.95455,0.293865 -1.21333,-0.01663 z m 1.05273,-0.25498 c -0.2339,-0.277652 -0.46709,-0.555682 -0.6996,-0.83408 0.0119,-0.0087 0.0237,-0.01744 0.0356,-0.02616 0.40057,-0.29465 0.93132,-0.289043 1.18777,0.01405 0.23694,0.280022 0.4746,0.559649 0.71301,0.838873 -0.008,0.0058 -0.0156,0.01162 -0.0234,0.01743 -0.40866,0.304316 -0.95295,0.299004 -1.21336,-0.01011 z m 1.05129,-0.260608 c -0.2354,-0.276364 -0.47007,-0.553121 -0.70403,-0.830262 0.0118,-0.0088 0.0236,-0.01756 0.0354,-0.02634 0.39886,-0.29676 0.9295,-0.294065 1.1876,0.0076 0.23846,0.278695 0.47767,0.55698 0.71765,0.834844 -0.008,0.0059 -0.0155,0.01171 -0.0233,0.01756 -0.40694,0.306621 -0.95126,0.3043 -1.21334,-0.0034 z m 1.04976,-0.266411 c -0.23694,-0.275028 -0.47313,-0.550465 -0.70859,-0.826301 0.0118,-0.0088 0.0235,-0.01769 0.0353,-0.02654 0.39709,-0.298932 0.92761,-0.299242 1.1874,9.23e-4 0.24003,0.277319 0.48083,0.554213 0.72242,0.83067 -0.008,0.0059 -0.0155,0.0118 -0.0232,0.01769 -0.40517,0.308989 -0.94951,0.309753 -1.2133,0.0036 z m 1.04816,-0.27239 c -0.23852,-0.273645 -0.47627,-0.547714 -0.71327,-0.822197 0.0117,-0.0089 0.0234,-0.01782 0.0351,-0.02674 0.39526,-0.301166 0.92564,-0.304575 1.18718,-0.006 0.24163,0.275896 0.48407,0.55135 0.72731,0.826353 -0.008,0.0059 -0.0154,0.01189 -0.0231,0.01783 -0.40334,0.311421 -0.94769,0.315364 -1.21324,0.0107 z m 1.04649,-0.278546 c -0.24014,-0.272213 -0.47949,-0.544866 -0.71807,-0.817949 0.0117,-0.009 0.0233,-0.01796 0.0349,-0.02694 0.39337,-0.303462 0.9236,-0.310063 1.18693,-0.01304 0.24328,0.274425 0.48739,0.548391 0.73233,0.821891 -0.008,0.006 -0.0153,0.01198 -0.023,0.01797 -0.40144,0.313916 -0.94578,0.321132 -1.21315,0.01806 z m 1.04476,-0.284876 c -0.24181,-0.270735 -0.48281,-0.541924 -0.72301,-0.81356 0.0116,-0.009 0.0232,-0.0181 0.0348,-0.02715 0.39142,-0.305819 0.92148,-0.315706 1.18664,-0.02032 0.24499,0.272905 0.49081,0.545336 0.73749,0.817284 -0.008,0.006 -0.0152,0.01208 -0.0229,0.01812 -0.39947,0.316475 -0.94381,0.327057 -1.21302,0.02563 z m 1.04294,-0.291382 c -0.24352,-0.269209 -0.4862,-0.538888 -0.72807,-0.809028 0.0115,-0.0091 0.0231,-0.01825 0.0346,-0.02737 0.38941,-0.308238 0.9193,-0.321504 1.18634,-0.02782 0.24672,0.271337 0.4943,0.542184 0.74276,0.812532 -0.008,0.0061 -0.0152,0.01218 -0.0228,0.01827 -0.39745,0.319098 -0.94175,0.333139 -1.21287,0.03342 z m 1.04106,-0.298066 c -0.24527,-0.267635 -0.48968,-0.535755 -0.73325,-0.804351 0.0115,-0.0092 0.0229,-0.01839 0.0344,-0.02759 0.38733,-0.31072 0.91704,-0.327458 1.186,-0.03552 0.0474,0.05139 0.0947,0.102773 0.14216,0.154132 0.20142,0.218169 0.4034,0.436011 0.60602,0.653491 -0.008,0.0061 -0.0151,0.01228 -0.0226,0.01842 -0.0989,0.08047 -0.21107,0.144575 -0.32947,0.188244 -0.34012,0.125443 -0.68699,0.06731 -0.88323,-0.146826 z m 1.03909,-0.304924 c -0.14182,-0.152703 -0.28335,-0.305579 -0.4246,-0.458615 -0.10481,-0.11355 -0.20946,-0.227189 -0.31395,-0.340918 0.0114,-0.0093 0.0228,-0.01854 0.0342,-0.02782 0.0446,-0.0363 0.0921,-0.06929 0.1418,-0.09853 0.37191,-0.218888 0.80847,-0.196373 1.04338,0.05511 0.25031,0.267973 0.50163,0.535343 0.75407,0.802037 -0.008,0.0062 -0.015,0.0124 -0.0225,0.0186 -0.39302,0.325038 -0.93738,0.346259 -1.21242,0.05013 z m 1.03677,-0.312285 c -0.24908,-0.264106 -0.49709,-0.528856 -0.74414,-0.79418 0.0113,-0.0093 0.0226,-0.0187 0.034,-0.02805 0.38233,-0.315786 0.9103,-0.339958 1.18344,-0.05229 0.25244,0.265864 0.50605,0.531003 0.76095,0.795346 -0.007,0.0063 -0.0149,0.01254 -0.0223,0.01881 -0.39019,0.328738 -0.93459,0.354393 -1.2119,0.06036 z m 1.03388,-0.320894 c -0.25143,-0.261843 -0.50162,-0.524447 -0.75069,-0.787743 0.0112,-0.0094 0.0224,-0.01887 0.0337,-0.02831 0.37889,-0.318716 0.90571,-0.347709 1.18149,-0.06274 0.25489,0.263385 0.51112,0.525926 0.76881,0.787549 -0.007,0.0063 -0.0147,0.0127 -0.0221,0.01904 -0.38687,0.332928 -0.93124,0.363734 -1.21116,0.07221 z m 1.03043,-0.330855 c -0.25409,-0.259215 -0.50679,-0.519308 -0.7582,-0.780212 0.0111,-0.0095 0.0222,-0.01908 0.0333,-0.02862 0.37496,-0.322121 0.90054,-0.356654 1.17931,-0.07478 0.25767,0.260538 0.51685,0.520111 0.77766,0.778647 -0.007,0.0064 -0.0146,0.01287 -0.0219,0.01931 -0.38307,0.337609 -0.9273,0.374283 -1.21021,0.08567 z m 1.02644,-0.342166 c -0.25708,-0.256222 -0.5126,-0.513441 -0.76668,-0.771588 0.011,-0.0097 0.022,-0.01932 0.033,-0.02898 0.27933,-0.245736 0.65738,-0.336657 0.95315,-0.228333 0.0861,0.03154 0.1619,0.07894 0.22369,0.139949 0.26063,0.257363 0.52286,0.513614 0.7876,0.768197 -0.007,0.0065 -0.0144,0.01309 -0.0216,0.01964 -0.16261,0.147555 -0.36549,0.246165 -0.57098,0.278132 0,0 0,0 0,0 -0.2531,0.03937 -0.48638,-0.02578 -0.63812,-0.177016 z m 1.02165,-0.35494 c -0.26056,-0.252605 -0.51889,-0.506702 -0.77589,-0.761754 0.0108,-0.0098 0.0217,-0.01957 0.0325,-0.02936 0.36543,-0.330312 0.88297,-0.376697 1.16843,-0.104018 0.0267,0.02554 0.0535,0.05105 0.0803,0.07654 0.17716,0.169139 0.3553,0.337573 0.53659,0.503988 0.0616,0.05646 0.12368,0.112762 0.18613,0.168906 0,0 0,0 0,0 -0.0691,-0.174875 -0.1388,-0.350424 -0.2092,-0.526648 0.0701,0.175463 0.1399,0.351191 0.20941,0.527183 -0.007,0.0067 -0.014,0.01341 -0.0209,0.02012 -0.0218,0.02097 -0.0446,0.04115 -0.0681,0.06048 0,0 0,0 0,0 -0.0877,0.0714 -0.18567,0.129218 -0.28843,0.170764 0,0 0,0 0,0 -0.32121,0.129969 -0.65149,0.087 -0.85075,-0.106193 z"
       id="path1-8"
       sodipodi:nodetypes="czc"
       inkscape:path-effect="#path-effect5"
       inkscape:original-d="m 29.651952,23.056697 c 0,0 34.472683,13.797125 107.933928,13.797125 73.46126,0 107.93394,-13.797125 107.93394,-13.797125"
       transform="matrix(2.0886366,0,0,1,-32.837519,0)" />
  </g>
</svg>
