<?xml version="1.0" encoding="UTF-8" standalone="no"?>
<!-- Created with Inkscape (http://www.inkscape.org/) -->

<svg
   width="1033.8159"
   height="216.29987"
   viewBox="0 0 273.53046 57.229338"
   version="1.1"
   id="svg1"
   xmlns="http://www.w3.org/2000/svg"
   xmlns:svg="http://www.w3.org/2000/svg">
  <defs
     id="defs1" />
  <g
     id="layer1"
     transform="translate(-14.306177,-21.595328)">
    <path
       style="fill:#fff3c5;fill-opacity:1;stroke:#000000;stroke-width:0.217211;stroke-linecap:round;stroke-linejoin:round;stroke-dasharray:none;stroke-opacity:1;paint-order:stroke fill markers"
       d="m 30.713626,23.438177 c -0.114802,-0.360767 -0.225699,-0.721605 -0.330728,-1.082252 0,0 0,0 0,0 -0.04943,-0.171556 -0.09633,-0.342619 -0.13902,-0.512969 0,0 0,0 0,0 -0.01612,-0.05879 -0.03214,-0.117552 -0.04807,-0.17629 0.02447,-0.0038 0.04893,-0.0075 0.07338,-0.01129 0.01676,-0.0026 0.03356,-0.0049 0.05042,-0.0071 0,0 1e-6,0 1e-6,0 0.109367,-0.01717 0.221605,-0.02454 0.335541,-0.02125 0.45619,0.0143 0.886056,0.184566 1.171746,0.470868 0.131812,0.132094 0.227381,0.283997 0.280209,0.446238 0.19308,0.592973 0.393518,1.185798 0.600177,1.778323 2.4e-5,-5e-6 -0.04896,0.0098 -0.04894,0.0098 -0.532649,0.106774 -1.101937,-0.0086 -1.501666,-0.304018 0,0 0,0 0,0 -0.218166,-0.161251 -0.371742,-0.366032 -0.443046,-0.590108 z m 1.976787,0.675794 c -0.203192,-0.585961 -0.4002,-1.172198 -0.589924,-1.75856 0.02448,-0.0048 0.04895,-0.0096 0.07341,-0.01442 0.824241,-0.162244 1.666716,0.210182 1.890742,0.847359 0.207081,0.588976 0.420066,1.177778 0.637818,1.766251 -0.01624,0.0036 -0.03248,0.0072 -0.04872,0.01076 -0.852273,0.18806 -1.736635,-0.197669 -1.963326,-0.851396 z m 1.991219,0.632478 C 34.467193,24.164463 34.257515,23.582173 34.0537,22.99973 c 0.02444,-0.0053 0.04888,-0.01063 0.07331,-0.01595 0.82381,-0.179542 1.677584,0.178903 1.913595,0.81293 0.107759,0.289488 0.216606,0.578927 0.326402,0.868298 0.112387,0.296201 0.225739,0.592318 0.340037,0.888348 6e-6,-1e-6 -0.04855,0.01146 -0.04855,0.01146 -0.185444,0.04374 -0.37938,0.0612 -0.572309,0.05147 -0.664218,-0.03348 -1.224729,-0.381788 -1.404558,-0.869841 z m 2.001625,0.599088 c -0.09794,-0.254482 -0.195187,-0.509027 -0.291716,-0.763634 -0.123023,-0.324487 -0.244845,-0.649057 -0.365274,-0.973684 0.02442,-0.0057 0.04884,-0.0114 0.07326,-0.01711 0.19445,-0.04547 0.397739,-0.06178 0.598664,-0.048 0.626427,0.04296 1.151931,0.370996 1.331693,0.834677 0.226019,0.582995 0.455692,1.165668 0.688871,1.748 -0.01613,0.004 -0.03226,0.008 -0.04839,0.01206 -0.845865,0.210689 -1.738861,-0.14732 -1.987105,-0.792314 z m 2.00913,0.572763 c -0.229946,-0.575942 -0.45645,-1.152216 -0.679367,-1.728802 0.02437,-0.006 0.04874,-0.01202 0.07311,-0.01803 0.82264,-0.203097 1.68872,0.135055 1.941007,0.76269 0.233222,0.580207 0.46991,1.160087 0.709914,1.739621 6e-6,-10e-7 -0.04825,0.01263 -0.04825,0.01263 -0.843182,0.22064 -1.740196,-0.126355 -1.996418,-0.768111 z m 2.01585,0.548317 c -0.236732,-0.573179 -0.470207,-1.146695 -0.700281,-1.720528 1.4e-5,-3e-6 0.0729,-0.01891 0.07291,-0.01891 0.820508,-0.213028 1.691101,0.115068 1.950772,0.739843 0.240033,0.577525 0.483341,1.154719 0.729776,1.731563 7e-6,-2e-6 -0.04811,0.01317 -0.0481,0.01317 -0.840573,0.230028 -1.741312,-0.106496 -2.00508,-0.745136 z m 2.02206,0.525131 c -0.243129,-0.570523 -0.483186,-1.141387 -0.720027,-1.712571 0.02424,-0.0066 0.04848,-0.01316 0.07272,-0.01975 0.818449,-0.222409 1.693268,0.09618 1.959897,0.718204 0.246449,0.57495 0.495984,1.149564 0.748457,1.723824 7e-6,-1e-6 -0.04797,0.01368 -0.04796,0.01368 -0.838036,0.238851 -1.742208,-0.08775 -2.013088,-0.723389 z m 2.027756,0.503203 c -0.249136,-0.567973 -0.495386,-1.136289 -0.738605,-1.704931 0.02418,-0.0068 0.04836,-0.01368 0.07254,-0.02053 0.816461,-0.231242 1.695218,0.07838 1.968379,0.697774 0.252472,0.572481 0.50784,1.144623 0.765956,1.716406 -0.01594,0.0047 -0.03188,0.0094 -0.04783,0.01415 -0.835572,0.247111 -1.742886,-0.0701 -2.020443,-0.70287 z m 2.032939,0.482533 c -0.254754,-0.565526 -0.506806,-1.131402 -0.756014,-1.697606 0.02412,-0.0071 0.04824,-0.01417 0.07236,-0.02126 0.814545,-0.239527 1.696953,0.06168 1.976219,0.678551 0.2581,0.570119 0.518908,1.139895 0.782274,1.709308 -0.0159,0.0049 -0.03179,0.0097 -0.04769,0.01459 -0.833181,0.254808 -1.743344,-0.05357 -2.027146,-0.683581 z m 2.03761,0.463124 c -0.259982,-0.563187 -0.517448,-1.126727 -0.772255,-1.6906 0.02407,-0.0073 0.04813,-0.01463 0.07219,-0.02195 0.8127,-0.247262 1.698472,0.04607 1.983417,0.660536 0.263336,0.567864 0.529189,1.135381 0.797411,1.70253 -0.01585,0.005 -0.03171,0.01 -0.04756,0.015 -0.830862,0.261941 -1.743583,-0.03814 -2.033196,-0.665519 z m 2.041768,0.444974 c -0.264821,-0.560953 -0.527311,-1.122263 -0.787327,-1.68391 0.02401,-0.0075 0.04802,-0.01505 0.07202,-0.02259 0.810927,-0.254449 1.699776,0.03156 1.989973,0.643729 0.268177,0.565715 0.538682,1.13108 0.811366,1.696073 -0.01581,0.0051 -0.03163,0.01025 -0.04744,0.01538 -0.828617,0.268511 -1.743602,-0.02382 -2.038593,-0.648684 z m 2.045414,0.428081 c -0.26927,-0.558824 -0.536395,-1.11801 -0.801232,-1.677537 0.02396,-0.0077 0.04791,-0.01545 0.07186,-0.02317 0.809225,-0.261085 1.700863,0.01814 1.995886,0.62813 0.272625,0.563675 0.547388,1.126994 0.824141,1.689936 -0.01577,0.0052 -0.03155,0.01048 -0.04732,0.01572 -0.826444,0.274518 -1.743401,-0.01062 -2.043336,-0.633079 z m 2.048546,0.412448 c -0.27333,-0.556801 -0.5447,-1.113968 -0.813967,-1.67148 0.02391,-0.0079 0.04781,-0.01581 0.07171,-0.02371 0.807595,-0.267173 1.701736,0.0058 2.001158,0.61374 0.03023,0.06138 0.06049,0.12276 0.09077,0.184134 0.246828,0.500291 0.495158,1.000283 0.744976,1.499973 -0.01573,0.0053 -0.03147,0.01069 -0.04721,0.01604 -0.32255,0.109556 -0.675874,0.13718 -1.00663,0.07868 -0.481596,-0.08518 -0.867341,-0.344002 -1.040809,-0.697373 z m 2.051169,0.398064 c -0.229606,-0.459896 -0.45795,-0.920047 -0.685022,-1.380452 -0.04689,-0.09508 -0.09373,-0.190175 -0.140515,-0.285278 0.02386,-0.0081 0.04771,-0.01613 0.07156,-0.0242 0.04491,-0.0152 0.09056,-0.02883 0.136806,-0.04087 0,0 0,0 0,0 0.776398,-0.20203 1.584947,0.07448 1.868756,0.641201 0.280357,0.559829 0.562584,1.11928 0.846658,1.678353 -0.0157,0.0054 -0.03139,0.0109 -0.04709,0.01634 -0.822392,0.285328 -1.742626,0.01288 -2.051153,-0.6051 z m 2.053443,0.384482 c -0.280599,-0.552977 -0.559389,-1.106325 -0.836349,-1.660041 0.0238,-0.0082 0.0476,-0.01644 0.0714,-0.02467 0.804215,-0.277958 1.702006,-0.0166 2.009288,0.587139 0.283966,0.557926 0.569774,1.115475 0.857405,1.672644 -0.01566,0.0055 -0.03132,0.0111 -0.04698,0.01665 -0.820428,0.290578 -1.742255,0.02414 -2.054761,-0.591719 z m 2.055631,0.371116 c -0.284121,-0.551095 -0.566458,-1.102562 -0.846991,-1.654396 0.02375,-0.0084 0.04749,-0.01675 0.07123,-0.02513 0.802354,-0.283138 1.701793,-0.02759 2.012924,0.574111 0.28752,0.556039 0.576856,1.111702 0.867987,1.666985 -0.01562,0.0056 -0.03125,0.0113 -0.04687,0.01694 -0.818475,0.29575 -1.741857,0.03524 -2.058282,-0.578513 z m 2.057752,0.35793 c -0.287589,-0.549231 -0.573419,-1.098832 -0.857472,-1.648802 0.02369,-0.0085 0.04738,-0.01705 0.07107,-0.02558 0.800505,-0.288242 1.701554,-0.03843 2.016476,0.561254 0.291019,0.554169 0.583828,1.107962 0.878405,1.661376 -0.01559,0.0057 -0.03117,0.01149 -0.04676,0.01723 -0.816536,0.300842 -1.741434,0.04619 -2.061717,-0.565481 z m 2.059805,0.344919 c -0.291002,-0.547382 -0.580272,-1.095134 -0.86779,-1.643254 0.02364,-0.0087 0.04727,-0.01735 0.0709,-0.02603 0.798667,-0.293269 1.701289,-0.04912 2.019942,0.548568 0.294464,0.552316 0.590691,1.104256 0.88866,1.655816 -0.01555,0.0058 -0.0311,0.01168 -0.04665,0.01752 -0.814608,0.305857 -1.740984,0.05698 -2.065065,-0.552623 z m 2.061793,0.332088 c -0.294362,-0.545549 -0.587017,-1.091469 -0.877947,-1.637756 0.02358,-0.0088 0.04716,-0.01764 0.07074,-0.02647 0.796842,-0.29822 1.700998,-0.05965 2.023323,0.536054 0.297854,0.550479 0.597444,1.100581 0.898751,1.650305 -0.01551,0.0059 -0.03103,0.01187 -0.04654,0.0178 -0.812693,0.310792 -1.740508,0.06762 -2.068326,-0.53994 z m 2.063712,0.319435 c -0.297667,-0.543733 -0.593654,-1.087836 -0.88794,-1.632308 0.02353,-0.009 0.04706,-0.01793 0.07058,-0.0269 0.795029,-0.303093 1.70068,-0.07003 2.026618,0.523711 0.301189,0.548658 0.604089,1.09694 0.908677,1.644843 -0.01548,0.006 -0.03095,0.01205 -0.04643,0.01808 -0.81079,0.315651 -1.740004,0.0781 -2.071501,-0.527429 z m 2.065566,0.306959 c -0.300918,-0.541933 -0.600183,-1.084236 -0.897773,-1.626907 0.02348,-0.0091 0.04695,-0.01821 0.07042,-0.02732 0.793228,-0.307891 1.700337,-0.08026 2.029829,0.511539 0.30447,0.546854 0.610624,1.093331 0.918441,1.63943 -0.01544,0.0061 -0.03088,0.01224 -0.04633,0.01836 -0.8089,0.320429 -1.739475,0.08842 -2.074589,-0.515094 z m 2.067352,0.294661 c -0.304116,-0.54015 -0.606604,-1.080669 -0.907443,-1.621556 0.02342,-0.0092 0.04684,-0.01849 0.07026,-0.02774 0.791439,-0.312611 1.699967,-0.09033 2.032954,0.499539 0.307696,0.545066 0.617049,1.089755 0.928039,1.634066 -0.01541,0.0062 -0.03081,0.01242 -0.04622,0.01863 -0.807021,0.325131 -1.738919,0.09859 -2.07759,-0.502932 z m 2.069072,0.282541 c -0.30726,-0.538382 -0.612917,-1.077133 -0.916951,-1.616252 0.02337,-0.0094 0.04673,-0.01877 0.0701,-0.02816 0.789663,-0.317255 1.699572,-0.100246 2.035995,0.48771 0.310868,0.543294 0.623366,1.086212 0.937474,1.628752 -0.01537,0.0063 -0.03074,0.01259 -0.04611,0.01889 -0.805156,0.329754 -1.738337,0.108604 -2.080505,-0.490945 z m 2.070724,0.270599 C 77.33,32.852274 77.021227,32.315274 76.714052,31.777907 c 0.02332,-0.0095 0.04663,-0.01904 0.06994,-0.02856 0.787898,-0.321822 1.69915,-0.11001 2.038949,0.476052 0.313985,0.541539 0.629574,1.082703 0.946746,1.623488 -0.01533,0.0064 -0.03067,0.01277 -0.04601,0.01915 -0.803302,0.334298 -1.737728,0.118461 -2.083333,-0.479132 z m 2.072309,0.258834 c -0.313384,-0.534895 -0.625218,-1.070159 -0.935481,-1.605791 0.02327,-0.0097 0.04653,-0.0193 0.06979,-0.02896 0.786146,-0.326314 1.698703,-0.119621 2.041819,0.464565 0.317047,0.5398 0.635672,1.079225 0.955853,1.618272 -0.0153,0.0065 -0.0306,0.01294 -0.0459,0.01941 -0.80146,0.338764 -1.737093,0.128162 -2.086075,-0.467494 z m 2.073828,0.247249 c -0.316365,-0.533176 -0.631206,-1.066722 -0.944502,-1.600635 0.02321,-0.0098 0.04642,-0.01956 0.06963,-0.02935 0.784406,-0.330728 1.69823,-0.129077 2.044604,0.45325 0.320055,0.538078 0.641661,1.075781 0.964797,1.613105 -0.01527,0.0066 -0.03053,0.01311 -0.0458,0.01966 -0.79963,0.343152 -1.73643,0.137708 -2.08873,-0.456029 z m 2.075281,0.235841 c -0.319293,-0.531474 -0.637087,-1.063317 -0.953362,-1.595527 0.02316,-0.0099 0.04632,-0.01982 0.06948,-0.02973 0.782678,-0.335065 1.697731,-0.13838 2.047304,0.442106 0.323008,0.536372 0.64754,1.072369 0.973576,1.607988 -0.01523,0.0066 -0.03046,0.01327 -0.0457,0.01991 -0.797814,0.347461 -1.735742,0.147097 -2.091298,-0.444738 z m 2.076665,0.22461 c -0.322166,-0.529788 -0.642859,-1.059944 -0.962059,-1.590467 0.02311,-0.01004 0.04622,-0.02007 0.06932,-0.03011 0.780961,-0.339327 1.697205,-0.14753 2.049918,0.431133 0.325906,0.534683 0.65331,1.06899 0.982191,1.60292 -0.0152,0.0067 -0.03039,0.01343 -0.04559,0.02015 -0.796009,0.351692 -1.735028,0.15633 -2.09378,-0.433622 z m 2.077983,0.213557 c -0.324985,-0.528117 -0.648523,-1.056603 -0.970594,-1.585456 0.02306,-0.01016 0.04612,-0.02032 0.06917,-0.03048 0.779257,-0.34351 1.696654,-0.156525 2.052447,0.420332 0.32875,0.53301 0.658971,1.065644 0.990643,1.597902 -0.01516,0.0068 -0.03033,0.01359 -0.04549,0.02038 -0.794218,0.355845 -1.734287,0.165408 -2.096176,-0.42268 z m 2.079235,0.202683 c -0.32775,-0.526463 -0.65408,-1.053295 -0.978968,-1.580493 0.02301,-0.01028 0.04601,-0.02056 0.06902,-0.03085 0.777565,-0.347618 1.696076,-0.165367 2.054891,0.409702 0.331539,0.531353 0.664523,1.062331 0.998931,1.592932 -0.01513,0.0069 -0.03026,0.01375 -0.04539,0.02062 -0.792438,0.359919 -1.733519,0.17433 -2.098484,-0.411912 z m 2.080419,0.191987 c -0.330461,-0.524825 -0.659528,-1.05002 -0.987179,-1.57558 0.02296,-0.0104 0.04591,-0.0208 0.06887,-0.0312 0.775885,-0.35165 1.695473,-0.174055 2.05725,0.399243 0.334273,0.529713 0.669965,1.059051 1.007054,1.588011 -0.0151,0.007 -0.03019,0.0139 -0.04529,0.02085 -0.79067,0.363915 -1.732724,0.183095 -2.100706,-0.401318 z m 2.081537,0.181468 c -0.333119,-0.523204 -0.664868,-1.046777 -0.995229,-1.570716 0.02291,-0.01052 0.04582,-0.02104 0.06872,-0.03156 0.774217,-0.355604 1.694844,-0.18259 2.059524,0.388955 0.336953,0.528089 0.675298,1.055804 1.015015,1.583141 -0.01506,0.007 -0.03013,0.01405 -0.04519,0.02107 -0.788915,0.367833 -1.731904,0.191705 -2.102841,-0.390898 z m 2.082587,0.171127 c -0.335722,-0.521599 -0.6701,-1.043566 -1.003115,-1.565899 0.02286,-0.01063 0.04572,-0.02126 0.06857,-0.0319 0.772562,-0.359481 1.694189,-0.19097 2.061713,0.378839 0.339578,0.526482 0.680522,1.052589 1.02281,1.578319 -0.01503,0.0071 -0.03006,0.0142 -0.04509,0.02129 -0.787172,0.371673 -1.731057,0.20016 -2.10489,-0.380652 z m 2.083571,0.160964 c -0.338271,-0.52001 -0.675224,-1.040388 -1.010841,-1.561132 0.02281,-0.01074 0.04562,-0.02149 0.06843,-0.03224 0.770918,-0.363283 1.693507,-0.199198 2.063816,0.368894 0.342149,0.52489 0.685635,1.049407 1.030445,1.573546 -0.015,0.0072 -0.03,0.01434 -0.045,0.02151 -0.785446,0.375434 -1.730187,0.208458 -2.106856,-0.370581 z m 2.084486,0.150979 c -0.34076,-0.518437 -0.680239,-1.037242 -1.018402,-1.556413 0.02276,-0.01085 0.04552,-0.02171 0.06828,-0.03257 0.769282,-0.367007 1.692802,-0.207271 2.065832,0.359121 0.34467,0.523316 0.69064,1.046258 1.03791,1.568823 -0.015,0.0072 -0.0299,0.01448 -0.0449,0.02172 -0.78372,0.379117 -1.72928,0.2166 -2.10873,-0.360684 z m 2.08534,0.141172 c -0.34321,-0.51688 -0.68515,-1.034128 -1.0258,-1.551743 0.0227,-0.01096 0.0454,-0.02192 0.0681,-0.03289 0.76767,-0.370655 1.69207,-0.215191 2.06777,0.349518 0.34712,0.521758 0.69554,1.043142 1.04521,1.564149 -0.0149,0.0073 -0.0299,0.01462 -0.0448,0.02193 -0.78202,0.382721 -1.72836,0.224586 -2.11052,-0.350961 z m 2.08612,0.131543 c -0.34559,-0.51534 -0.68995,-1.031048 -1.03304,-1.547121 0.0227,-0.01107 0.0453,-0.02214 0.068,-0.03321 0.76606,-0.374226 1.69131,-0.222957 2.06961,0.340087 0.34954,0.520216 0.70033,1.040058 1.05236,1.559524 -0.0149,0.0074 -0.0298,0.01475 -0.0447,0.02213 -0.78033,0.386248 -1.7274,0.232416 -2.11222,-0.341412 z m 2.08684,0.122092 c -0.34793,-0.513816 -0.69464,-1.028 -1.04012,-1.542549 0.0226,-0.01117 0.0452,-0.02234 0.0679,-0.03352 0.76446,-0.37772 1.69052,-0.230569 2.07137,0.330827 0.35189,0.518691 0.70501,1.037008 1.05934,1.554949 -0.0149,0.0074 -0.0297,0.01488 -0.0446,0.02233 -0.77864,0.389696 -1.72642,0.240091 -2.11383,-0.332037 z m 2.08748,0.112818 c -0.3502,-0.512308 -0.69922,-1.024983 -1.04703,-1.538025 0.0226,-0.01127 0.0451,-0.02254 0.0677,-0.03382 0.76288,-0.381139 1.68971,-0.238028 2.07305,0.321738 0.35418,0.517182 0.70957,1.03399 1.06615,1.550422 -0.0148,0.0075 -0.0297,0.01501 -0.0445,0.02252 -0.77698,0.393066 -1.72542,0.247609 -2.11537,-0.322837 z m 2.08807,0.103724 c -0.35243,-0.510817 -0.7037,-1.022001 -1.05378,-1.53355 0.0225,-0.01137 0.045,-0.02274 0.0676,-0.03412 0.76131,-0.38448 1.68888,-0.245333 2.07465,0.312821 0.35643,0.51569 0.71403,1.031005 1.0728,1.545945 -0.0148,0.0076 -0.0296,0.01514 -0.0444,0.02271 -0.77532,0.396358 -1.72439,0.254972 -2.11681,-0.313809 z m 2.08859,0.09481 c -0.3546,-0.509341 -0.70807,-1.019049 -1.06038,-1.529123 0.0225,-0.01147 0.045,-0.02294 0.0674,-0.03441 0.75975,-0.387744 1.68801,-0.252485 2.07615,0.304075 0.35862,0.514213 0.71838,1.028053 1.07928,1.541517 -0.0148,0.0076 -0.0296,0.01526 -0.0443,0.02289 -0.77368,0.399571 -1.72333,0.262179 -2.11816,-0.304957 z m 2.08903,0.08607 c -0.35672,-0.507882 -0.71233,-1.016131 -1.0668,-1.524745 0.0224,-0.01156 0.0449,-0.02312 0.0673,-0.03469 0.75821,-0.390932 1.68713,-0.259482 2.07758,0.2955 0.36075,0.512754 0.72262,1.025134 1.0856,1.537139 -0.0147,0.0077 -0.0295,0.01538 -0.0442,0.02307 -0.77204,0.402706 -1.72224,0.26923 -2.11943,-0.296279 z m 2.08941,0.0775 c -0.35878,-0.506438 -0.71647,-1.013245 -1.07307,-1.520416 0.0224,-0.01165 0.0448,-0.02331 0.0672,-0.03496 0.75666,-0.394043 1.6862,-0.266326 2.07891,0.287096 0.36283,0.511311 0.72675,1.022248 1.09176,1.53281 -0.0147,0.0077 -0.0294,0.0155 -0.0441,0.02325 -0.77042,0.405762 -1.72113,0.276124 -2.12062,-0.287776 z m 2.08973,0.06912 c -0.36079,-0.505012 -0.72052,-1.010392 -1.07917,-1.516136 0.0223,-0.01174 0.0447,-0.02349 0.067,-0.03523 0.75514,-0.397077 1.68526,-0.273017 2.08016,0.278864 0.36485,0.509884 0.73077,1.019395 1.09775,1.52853 -0.0147,0.0078 -0.0294,0.01561 -0.044,0.02342 -0.76882,0.408742 -1.71999,0.282863 -2.12172,-0.279445 z m 2.08998,0.06092 c -0.36274,-0.503602 -0.72445,-1.007571 -1.08511,-1.511904 0.0223,-0.01183 0.0446,-0.02366 0.0669,-0.03549 0.75363,-0.400035 1.68429,-0.279553 2.08133,0.270804 0.36682,0.508473 0.73468,1.016574 1.10358,1.524298 -0.0147,0.0079 -0.0293,0.01573 -0.044,0.02359 -0.76722,0.411642 -1.71882,0.289446 -2.12272,-0.271289 z m 2.09016,0.05289 c -0.36464,-0.502208 -0.72828,-1.004782 -1.09089,-1.507722 0.0222,-0.01192 0.0445,-0.02383 0.0667,-0.03575 0.75214,-0.402916 1.68331,-0.285936 2.08242,0.262914 0.36873,0.507079 0.73848,1.013786 1.10924,1.520117 -0.0146,0.0079 -0.0292,0.01583 -0.0439,0.02375 -0.76565,0.414463 -1.71764,0.295873 -2.12365,-0.263308 z m 2.09027,0.04504 c -0.36649,-0.50083 -0.732,-1.002026 -1.09651,-1.503587 0.0222,-0.012 0.0444,-0.024 0.0666,-0.036 0.75065,-0.405721 1.68229,-0.292166 2.08341,0.255195 0.3706,0.505702 0.74219,1.011031 1.11475,1.515985 -0.0146,0.008 -0.0292,0.01594 -0.0438,0.0239 -0.76408,0.417208 -1.71642,0.302144 -2.12449,-0.2555 z m 2.09032,0.03736 c -0.36828,-0.499467 -0.73561,-0.999302 -1.10196,-1.499501 0.0222,-0.01208 0.0443,-0.02416 0.0665,-0.03624 0.74917,-0.408448 1.68124,-0.298241 2.08432,0.247649 0.3724,0.504341 0.74577,1.008308 1.12008,1.511901 -0.0146,0.008 -0.0291,0.01604 -0.0437,0.02406 -0.76252,0.419873 -1.71518,0.308259 -2.12524,-0.247868 z m 2.09031,0.02987 c -0.37003,-0.498122 -0.73912,-0.996611 -1.10727,-1.495465 0.0221,-0.01216 0.0442,-0.02432 0.0663,-0.03647 0.74772,-0.411099 1.68017,-0.304164 2.08515,0.240273 0.37415,0.502996 0.74925,1.005619 1.12526,1.507867 -0.0145,0.0081 -0.0291,0.01614 -0.0436,0.02421 -0.76097,0.422461 -1.7139,0.314218 -2.12589,-0.240408 z m 2.09021,0.02255 c -0.37171,-0.496793 -0.74251,-0.993952 -1.11239,-1.491476 0.0221,-0.01223 0.0442,-0.02447 0.0662,-0.0367 0.74626,-0.413673 1.67907,-0.309932 2.08589,0.233069 0.37584,0.501667 0.75261,1.002962 1.13026,1.503883 -0.0145,0.0081 -0.029,0.01623 -0.0435,0.02435 -0.75943,0.424969 -1.7126,0.32002 -2.12647,-0.233124 z m 2.09006,0.01542 c -0.37334,-0.49548 -0.7458,-0.991326 -1.11736,-1.487536 0.022,-0.01231 0.0441,-0.02461 0.0661,-0.03692 0.74482,-0.416171 1.67795,-0.315548 2.08654,0.226035 0.37749,0.500355 0.75587,1.000339 1.13512,1.499947 -0.0145,0.0082 -0.029,0.01633 -0.0434,0.02449 -0.75791,0.4274 -1.71128,0.325668 -2.12696,-0.226013 z m 2.08984,0.0085 c -0.37491,-0.494183 -0.74897,-0.988733 -1.12217,-1.483646 0.022,-0.01238 0.044,-0.02476 0.066,-0.03714 0.7434,-0.418592 1.6768,-0.321009 2.08711,0.219173 0.17813,0.23451 0.35645,0.468938 0.53496,0.703284 0.20137,0.264345 0.403,0.52861 0.60487,0.792792 -0.0145,0.0082 -0.0289,0.01642 -0.0434,0.02463 -0.17376,0.09872 -0.36433,0.172449 -0.56152,0.217241 -0.63598,0.144508 -1.25661,-0.0287 -1.56587,-0.436333 z m 2.08958,0.0017 c -0.17476,-0.228822 -0.34933,-0.457705 -0.52371,-0.686647 -0.20128,-0.264281 -0.40233,-0.528666 -0.60313,-0.793155 0.022,-0.01245 0.0439,-0.0249 0.0658,-0.03735 0.16659,-0.0945 0.34877,-0.165714 0.53729,-0.210017 0.62723,-0.147569 1.24263,0.01967 1.55043,0.422159 0.3807,0.497805 0.76229,0.995314 1.14478,1.492513 -0.0144,0.0083 -0.0288,0.01651 -0.0433,0.02477 -0.75521,0.432305 -1.7091,0.33653 -2.12823,-0.212278 z m 2.08971,-0.0051 c -0.37813,-0.491787 -0.75536,-0.983875 -1.13172,-1.476254 0.0219,-0.01252 0.0438,-0.02505 0.0657,-0.03757 0.74065,-0.423506 1.6747,-0.332256 2.08857,0.205298 0.38236,0.496624 0.76563,0.992933 1.14983,1.488915 0,1e-6 -0.0432,0.02492 -0.0432,0.02492 -0.75388,0.434878 -1.70823,0.342226 -2.12921,-0.205305 z m 2.08996,-0.01192 c -0.37981,-0.490587 -0.75871,-0.981492 -1.13671,-1.472704 0.0219,-0.0126 0.0437,-0.02519 0.0656,-0.03779 0.7393,-0.425979 1.67368,-0.337819 2.08938,0.198398 0.38406,0.495394 0.76905,0.990455 1.15499,1.485172 -1e-5,10e-7 -0.0431,0.02507 -0.0431,0.02507 -0.75248,0.437504 -1.70729,0.348058 -2.13014,-0.198142 z m 2.09014,-0.01897 c -0.38152,-0.489338 -0.76211,-0.979012 -1.14179,-1.46901 0.0218,-0.01267 0.0437,-0.02534 0.0655,-0.03802 0.73789,-0.428501 1.67258,-0.343514 2.09015,0.191314 0.38578,0.494115 0.77252,0.98788 1.16022,1.481284 0,1e-6 -0.043,0.02522 -0.043,0.02522 -0.75103,0.44018 -1.70626,0.354023 -2.13103,-0.190792 z m 2.09027,-0.0262 c -0.38326,-0.488042 -0.76557,-0.976436 -1.14696,-1.465173 0.0218,-0.01275 0.0436,-0.0255 0.0653,-0.03825 0.73642,-0.431074 1.6714,-0.349342 2.09086,0.184044 0.38754,0.492788 0.77605,0.985209 1.16555,1.477251 0,10e-7 -0.0429,0.02538 -0.0429,0.02538 -0.74951,0.442907 -1.70515,0.360124 -2.13186,-0.183254 z m 2.09032,-0.03361 c -0.38503,-0.486697 -0.7691,-0.973766 -1.15222,-1.461192 0.0217,-0.01282 0.0435,-0.02565 0.0652,-0.03848 0.7349,-0.433695 1.67014,-0.355302 2.09153,0.176589 0.38933,0.491414 0.77965,0.982442 1.17098,1.473074 -1e-5,1e-6 -0.0428,0.02554 -0.0428,0.02554 -0.74794,0.445685 -1.70396,0.366361 -2.13265,-0.175527 z m 2.0903,-0.04119 c -0.38683,-0.485306 -0.77268,-0.970999 -1.15756,-1.457069 0.0217,-0.0129 0.0434,-0.02581 0.0651,-0.03872 0.7333,-0.436367 1.66879,-0.361395 2.09215,0.16895 0.39114,0.48999 0.7833,0.979577 1.17648,1.46875 0,10e-7 -0.0427,0.0257 -0.0427,0.0257 -0.7463,0.448514 -1.70268,0.372731 -2.13339,-0.167612 z m 2.09023,-0.04895 c -0.38867,-0.483867 -0.77633,-0.968138 -1.16301,-1.452802 0.0217,-0.01299 0.0433,-0.02597 0.0649,-0.03896 0.73165,-0.439089 1.66736,-0.367622 2.09272,0.161125 0.39299,0.488518 0.78701,0.976616 1.18208,1.464282 0,1e-6 -0.0426,0.02586 -0.0427,0.02586 -0.74459,0.451393 -1.70131,0.379236 -2.13406,-0.159509 z m 2.09007,-0.05689 c -0.39053,-0.482379 -0.78003,-0.96518 -1.16853,-1.448391 0.0216,-0.01307 0.0432,-0.02613 0.0648,-0.03921 0.72994,-0.44186 1.66585,-0.373981 2.09323,0.153115 0.39487,0.486998 0.79079,0.973558 1.18778,1.459669 0,10e-7 -0.0425,0.02603 -0.0425,0.02603 -0.74284,0.454323 -1.69988,0.385875 -2.13471,-0.151219 z m 2.08987,-0.06501 c -0.39243,-0.480844 -0.78381,-0.962127 -1.17416,-1.443836 0.0215,-0.01315 0.0431,-0.0263 0.0646,-0.03946 0.72818,-0.444681 1.66427,-0.380472 2.09371,0.144921 0.39678,0.485429 0.79463,0.970404 1.19356,1.454911 0,10e-7 -0.0424,0.0262 -0.0425,0.0262 -0.74101,0.457304 -1.69835,0.39265 -2.13528,-0.14274 z m 2.08958,-0.0733 c -0.39435,-0.479261 -0.78763,-0.958978 -1.17987,-1.439139 0.0215,-0.01324 0.043,-0.02647 0.0645,-0.03971 0.72635,-0.447552 1.6626,-0.387097 2.09414,0.136541 0.39871,0.483813 0.79852,0.967152 1.19943,1.450008 0,10e-7 -0.0423,0.02637 -0.0423,0.02637 -0.73913,0.460336 -1.69674,0.39956 -2.13582,-0.134073 z m 2.08923,-0.08177 c -0.3963,-0.47763 -0.79151,-0.955733 -1.18566,-1.434298 0.0214,-0.01332 0.0429,-0.02665 0.0643,-0.03997 0.72446,-0.450471 1.66084,-0.393854 2.09451,0.127977 0.40068,0.482148 0.80248,0.963805 1.2054,1.44496 -0.0141,0.0089 -0.0281,0.0177 -0.0422,0.02655 -0.73719,0.463419 -1.69505,0.406604 -2.13631,-0.125218 z m 2.08881,-0.09042 c -0.39828,-0.475952 -0.79545,-0.952393 -1.19155,-1.429314 0.0214,-0.01341 0.0427,-0.02682 0.0641,-0.04024 0.7225,-0.453442 1.659,-0.400745 2.09483,0.119227 0.40268,0.480434 0.80649,0.96036 1.21146,1.439767 -0.014,0.0089 -0.0281,0.01782 -0.0421,0.02673 -0.73519,0.466551 -1.69327,0.413782 -2.13675,-0.116175 z m 2.08834,-0.09925 c -0.40029,-0.474225 -0.79946,-0.948957 -1.19753,-1.424185 0,2e-6 0.064,-0.04051 0.0639,-0.0405 0.7205,-0.456461 1.6571,-0.407767 2.09511,0.110293 0.40471,0.478672 0.81058,0.956819 1.21761,1.434428 0,10e-7 -0.042,0.02691 -0.042,0.02691 -0.73312,0.469736 -1.69142,0.421096 -2.13713,-0.106944 z m 2.08778,-0.10826 c -0.40233,-0.472451 -0.80352,-0.945426 -1.20359,-1.418914 0.0213,-0.01359 0.0425,-0.02718 0.0638,-0.04078 0.71843,-0.459531 1.65509,-0.414924 2.09533,0.101173 0.40678,0.476862 0.81472,0.953181 1.22385,1.428945 -0.014,0.009 -0.0279,0.01807 -0.0419,0.0271 -0.731,0.472971 -1.68948,0.428544 -2.13748,-0.09753 z m 2.08717,-0.117445 c -0.4044,-0.470628 -0.80765,-0.941798 -1.20975,-1.413499 0.0212,-0.01368 0.0424,-0.02737 0.0636,-0.04105 0.71631,-0.462649 1.65302,-0.422211 2.09552,0.09187 0.40886,0.475004 0.81891,0.949447 1.23017,1.423317 -0.0139,0.0091 -0.0278,0.01819 -0.0417,0.02728 -0.72881,0.476257 -1.68745,0.436127 -2.13776,-0.08792 z m 2.08649,-0.126807 c -0.40651,-0.468758 -0.81184,-0.938076 -1.216,-1.407941 0.0211,-0.01378 0.0423,-0.02755 0.0634,-0.04134 0.71412,-0.465818 1.65085,-0.429633 2.09564,0.08238 0.41098,0.473097 0.82318,0.945615 1.2366,1.417544 -0.0139,0.0092 -0.0277,0.01832 -0.0416,0.02748 -0.72657,0.479594 -1.68535,0.443845 -2.138,-0.07812 z m 2.08574,-0.136347 c -0.40865,-0.466841 -0.81609,-0.934258 -1.22235,-1.40224 0.0211,-0.01387 0.0421,-0.02775 0.0632,-0.04162 0.71187,-0.469037 1.64861,-0.437188 2.09572,0.0727 0.41314,0.471141 0.8275,0.941687 1.24311,1.411625 -0.0138,0.0092 -0.0277,0.01845 -0.0415,0.02767 -0.72426,0.482981 -1.68316,0.451697 -2.13818,-0.06814 z m 2.08492,-0.146066 c -0.41081,-0.464875 -0.82039,-0.930344 -1.22877,-1.396395 0.021,-0.01397 0.042,-0.02794 0.063,-0.04191 0.70957,-0.472304 1.6463,-0.444874 2.09576,0.06285 0.41532,0.469138 0.83188,0.937663 1.24971,1.405562 -0.0138,0.0093 -0.0276,0.01858 -0.0414,0.02787 -0.72189,0.486419 -1.68089,0.459684 -2.13832,-0.05797 z m 2.08403,-0.155962 c -0.41299,-0.462862 -0.82475,-0.926335 -1.23529,-1.390406 0.0209,-0.01407 0.0418,-0.02814 0.0628,-0.04221 0.70721,-0.475622 1.64389,-0.452694 2.09575,0.0528 0.41752,0.467086 0.83632,0.933541 1.2564,1.399354 -0.0137,0.0094 -0.0275,0.01871 -0.0412,0.02806 -0.71946,0.489909 -1.67853,0.467806 -2.13842,-0.04761 z m 2.08309,-0.166036 c -0.41522,-0.460801 -0.82918,-0.92223 -1.2419,-1.384275 0.0209,-0.01417 0.0417,-0.02834 0.0626,-0.04251 0.70477,-0.478989 1.6414,-0.460647 2.09568,0.04257 0.41976,0.464986 0.84082,0.929323 1.26318,1.393001 -0.0137,0.0094 -0.0274,0.01885 -0.0411,0.02827 -0.71698,0.493448 -1.6761,0.476061 -2.13846,-0.03706 z m 2.08207,-0.176289 c -0.41747,-0.458692 -0.83366,-0.918029 -1.2486,-1.377999 0.0208,-0.01427 0.0416,-0.02854 0.0623,-0.04281 0.70229,-0.482406 1.63883,-0.468732 2.09557,0.03216 0.42203,0.462837 0.84538,0.925009 1.27006,1.386503 -0.0136,0.0095 -0.0273,0.01898 -0.0409,0.02847 -0.71443,0.497039 -1.67358,0.484452 -2.13845,-0.02632 z m 2.08098,-0.186718 c -0.41975,-0.456535 -0.8382,-0.913733 -1.25538,-1.37158 0.0207,-0.01437 0.0414,-0.02874 0.0621,-0.04312 0.69975,-0.485872 1.63618,-0.47695 2.09541,0.02156 0.42434,0.46064 0.85001,0.920597 1.27702,1.379859 -0.0136,0.0096 -0.0272,0.01912 -0.0408,0.02868 -0.71181,0.50068 -1.67097,0.492978 -2.13839,-0.0154 z m 2.07983,-0.197326 c -0.42206,-0.454331 -0.8428,-0.909341 -1.26225,-1.365018 0.0206,-0.01448 0.0412,-0.02895 0.0619,-0.04343 0.69714,-0.489389 1.63345,-0.485301 2.09519,0.01077 0.42667,0.458395 0.8547,0.91609 1.28408,1.373071 -0.0135,0.0096 -0.0271,0.01926 -0.0406,0.02889 -0.70914,0.504373 -1.66829,0.501638 -2.13829,-0.0043 z m 2.07862,-0.208112 c -0.4244,-0.452078 -0.84747,-0.904853 -1.26922,-1.358313 0.0205,-0.01458 0.0411,-0.02916 0.0616,-0.04375 0.69448,-0.492954 1.63064,-0.493784 2.09494,-1.94e-4 0.42903,0.456101 0.85943,0.911484 1.29122,1.366137 -0.0135,0.0097 -0.027,0.0194 -0.0405,0.02911 -0.7064,0.508116 -1.66551,0.510433 -2.13812,0.007 z m 2.07733,-0.219075 c -0.42677,-0.449779 -0.8522,-0.900271 -1.27628,-1.351464 0.0205,-0.01469 0.0409,-0.02938 0.0614,-0.04407 0.69175,-0.49657 1.62774,-0.502401 2.09462,-0.01135 0.43143,0.45376 0.86424,0.906784 1.29847,1.35906 -0.0134,0.0098 -0.0269,0.01955 -0.0403,0.02932 -0.70362,0.511911 -1.66267,0.519363 -2.13792,0.0185 z m 2.07598,-0.230218 c -0.42918,-0.44743 -0.85698,-0.895591 -1.28343,-1.344471 0.0204,-0.0148 0.0408,-0.0296 0.0612,-0.0444 0.68897,-0.500235 1.62477,-0.51115 2.09427,-0.02269 0.43385,0.451369 0.86911,0.901985 1.30579,1.351835 -0.0134,0.0098 -0.0268,0.0197 -0.0401,0.02954 -0.70076,0.515755 -1.65973,0.528427 -2.13766,0.03017 z m 2.07456,-0.241536 c -0.43161,-0.445035 -0.86182,-0.890818 -1.29066,-1.337336 0.0203,-0.01491 0.0406,-0.02982 0.0609,-0.04473 0.68613,-0.50395 1.62171,-0.520033 2.09387,-0.03421 0.4363,0.448931 0.87403,0.897091 1.31321,1.344468 -0.0133,0.0099 -0.0266,0.01984 -0.04,0.02977 -0.69784,0.519651 -1.65671,0.537626 -2.13735,0.04204 z m 2.07308,-0.253035 c -0.43407,-0.442591 -0.86673,-0.885947 -1.29799,-1.330056 0.0202,-0.01502 0.0404,-0.03004 0.0607,-0.04506 0.68322,-0.507714 1.61856,-0.529048 2.0934,-0.04592 0.43879,0.446444 0.87903,0.8921 1.32073,1.336955 -0.0133,0.01 -0.0265,0.02 -0.0398,0.02999 -0.69487,0.523598 -1.65361,0.546961 -2.13699,0.05409 z m 2.07152,-0.264709 c -0.43656,-0.4401 -0.87169,-0.880982 -1.30541,-1.322634 0.0201,-0.01513 0.0403,-0.03026 0.0604,-0.0454 0.68026,-0.511528 1.61535,-0.538196 2.09291,-0.05782 0.4413,0.443909 0.88407,0.887012 1.32832,1.329296 -0.0132,0.01007 -0.0264,0.02015 -0.0396,0.03022 -0.69183,0.527596 -1.65043,0.556429 -2.13659,0.06633 z m 2.0699,-0.276563 c -0.43908,-0.437561 -0.87671,-0.875921 -1.31291,-1.315068 0.02,-0.01525 0.0401,-0.03049 0.0601,-0.04574 0.67724,-0.515392 1.61204,-0.547477 2.09235,-0.06989 0.44385,0.441325 0.88918,0.881827 1.33602,1.321492 -0.0131,0.01015 -0.0263,0.0203 -0.0394,0.03045 -0.68874,0.531644 -1.64717,0.566032 -2.13614,0.07876 z m 2.06822,-0.288594 c -0.44163,-0.434974 -0.8818,-0.870764 -1.32051,-1.307359 0.0199,-0.01536 0.0399,-0.03073 0.0598,-0.04609 0.67416,-0.519305 1.60866,-0.55689 2.09175,-0.08216 0.44642,0.438694 0.89435,0.876546 1.3438,1.313544 -0.0131,0.01023 -0.0262,0.02046 -0.0393,0.03069 -0.68558,0.535744 -1.64382,0.57577 -2.13563,0.09138 z m 2.06647,-0.300803 c -0.44422,-0.432339 -0.88695,-0.865512 -1.3282,-1.299506 0.0199,-0.01548 0.0397,-0.03096 0.0596,-0.04644 0.67102,-0.523268 1.60519,-0.566437 2.0911,-0.09461 0.44903,0.436013 0.89958,0.871167 1.35168,1.30545 -0.013,0.01031 -0.026,0.02062 -0.0391,0.03092 -0.68236,0.539893 -1.64038,0.585642 -2.13507,0.104182 z m 2.06464,-0.313191 c -0.44683,-0.429656 -0.89215,-0.860163 -1.33597,-1.291509 0.0198,-0.0156 0.0395,-0.0312 0.0593,-0.0468 0.66781,-0.527281 1.60164,-0.576116 2.0904,-0.107241 0.45166,0.433285 0.90487,0.865693 1.35964,1.297212 -0.013,0.01039 -0.0259,0.02078 -0.0389,0.03116 -0.67908,0.544095 -1.63687,0.595649 -2.13447,0.117174 z m 2.06276,-0.325755 c -0.44947,-0.426925 -0.89741,-0.854719 -1.34384,-1.283369 0.0197,-0.01572 0.0393,-0.03144 0.059,-0.04716 0.66456,-0.531342 1.59801,-0.585927 2.08966,-0.120059 0.45432,0.430507 0.91022,0.860121 1.3677,1.288829 -0.0129,0.01047 -0.0258,0.02094 -0.0387,0.03141 -0.67574,0.548347 -1.63328,0.605791 -2.13382,0.130355 z m 2.06081,-0.338498 c -0.45215,-0.424147 -0.90274,-0.84918 -1.3518,-1.275086 0.0196,-0.01584 0.0391,-0.03168 0.0587,-0.04753 0.66123,-0.535454 1.5943,-0.595873 2.08886,-0.133064 0.45702,0.427683 0.91563,0.854453 1.37584,1.280301 -0.0128,0.01055 -0.0257,0.0211 -0.0385,0.03165 -0.67234,0.55265 -1.6296,0.616067 -2.13311,0.143724 z m 2.05878,-0.351418 c -0.45484,-0.421322 -0.90812,-0.843546 -1.35984,-1.26666 0.0195,-0.01596 0.0389,-0.03193 0.0584,-0.0479 0.65785,-0.539616 1.59051,-0.605951 2.08801,-0.146253 0.45975,0.424809 0.9211,0.848689 1.38408,1.271627 -0.0128,0.01064 -0.0255,0.02127 -0.0383,0.0319 -0.66887,0.557003 -1.62583,0.626478 -2.13236,0.157281 z m 2.0567,-0.364518 c -0.45758,-0.418447 -0.91356,-0.837814 -1.36798,-1.258089 0.0194,-0.01609 0.0387,-0.03218 0.0581,-0.04827 0.65442,-0.543827 1.58664,-0.616161 2.08713,-0.159626 0.4625,0.421887 0.92663,0.842827 1.39241,1.262808 -0.0127,0.01072 -0.0254,0.02144 -0.0381,0.03215 -0.66535,0.561408 -1.62199,0.637024 -2.13156,0.171026 z m 2.05454,-0.377793 c -0.46034,-0.415526 -0.91906,-0.831989 -1.3762,-1.249377 0.0193,-0.01621 0.0385,-0.03243 0.0578,-0.04865 0.65092,-0.548087 1.58268,-0.626504 2.08618,-0.173184 0.38645,0.347929 0.77403,0.695193 1.16276,1.041786 0.0793,0.07071 0.15866,0.1414 0.23807,0.212058 -0.0126,0.0108 -0.0253,0.02161 -0.0379,0.03241 -0.0425,0.03637 -0.0868,0.07113 -0.13267,0.104128 0,0 0,0 0,0 -0.66011,0.475121 -1.52367,0.509022 -1.99804,0.08083 z m 2.05232,-0.391249 c -0.0461,-0.04107 -0.0922,-0.08215 -0.13827,-0.123246 -0.41673,-0.371655 -0.83214,-0.744082 -1.24625,-1.117274 0.0192,-0.01634 0.0383,-0.03269 0.0575,-0.04903 0.25197,-0.215002 0.55985,-0.367931 0.87838,-0.436286 0.46915,-0.100671 0.91638,-0.0085 1.20667,0.249378 0.46806,0.415874 0.93783,0.83071 1.40942,1.244419 -0.0126,0.01089 -0.0251,0.02179 -0.0377,0.03268 -0.65799,0.570634 -1.61401,0.658792 -2.12976,0.199365 z m 2.04992,-0.405122 c -0.46605,-0.409351 -0.93033,-0.819797 -1.39295,-1.231251 0.019,-0.01647 0.0381,-0.03294 0.0571,-0.04942 0.64351,-0.556737 1.57354,-0.647567 2.08311,-0.201242 0.47098,0.41252 0.94379,0.823872 1.41858,1.233968 -1e-5,5e-6 -0.0374,0.03296 -0.0374,0.03297 -0.65374,0.575737 -1.60942,0.670866 -2.12845,0.214978 z m 2.04704,-0.420127 c -0.46918,-0.405799 -0.93645,-0.81282 -1.40192,-1.220976 0.0189,-0.01661 0.0378,-0.03322 0.0567,-0.04983 0.63907,-0.561303 1.56781,-0.659145 2.08072,-0.216858 0.4741,0.408813 0.95018,0.816329 1.42836,1.222461 -1e-5,4e-6 -0.0371,0.03327 -0.0371,0.03327 -0.64905,0.581194 -1.60421,0.683887 -2.12676,0.231927 z m 2.04365,-0.436391 c -0.47251,-0.4019 -0.94297,-0.805148 -1.41151,-1.209657 0.0188,-0.01675 0.0376,-0.03351 0.0563,-0.05027 0.63421,-0.566212 1.56147,-0.671657 2.07796,-0.233788 0.47743,0.404755 0.95697,0.808085 1.43875,1.2099 -0.0123,0.0112 -0.0246,0.0224 -0.0369,0.0336 -0.64391,0.587002 -1.59838,0.697853 -2.12467,0.25021 z m 2.03975,-0.453914 c -0.47605,-0.397653 -0.94991,-0.79678 -1.42172,-1.197296 0.0186,-0.01691 0.0373,-0.03383 0.0559,-0.05074 0.6289,-0.571463 1.55453,-0.685104 2.0748,-0.252031 0.48097,0.400347 0.96419,0.799138 1.44978,1.196285 -0.0122,0.01132 -0.0243,0.02264 -0.0365,0.03395 -0.63833,0.593163 -1.59193,0.712765 -2.12219,0.269828 z m 2.03533,-0.472697 c -0.47979,-0.393058 -0.95726,-0.787717 -1.43253,-1.183891 0.0185,-0.01708 0.0369,-0.03416 0.0554,-0.05124 0.62316,-0.577056 1.54697,-0.699485 2.07127,-0.271586 0.4847,0.395586 0.9718,0.789488 1.46142,1.181616 -0.0121,0.01144 -0.0241,0.02288 -0.0362,0.03432 -0.63231,0.599677 -1.58488,0.728623 -2.11933,0.29078 z m 2.03041,-0.492737 c -0.48374,-0.388116 -0.96502,-0.777959 -1.44397,-1.169444 0.0183,-0.01726 0.0365,-0.03451 0.0548,-0.05177 0.61698,-0.582992 1.5388,-0.714801 2.06734,-0.292455 0.48866,0.390474 0.97985,0.779134 1.47369,1.165892 -0.0119,0.01157 -0.0239,0.02314 -0.0358,0.03471 -0.62583,0.606544 -1.57719,0.745427 -2.11606,0.313068 z m 2.02496,-0.514037 c -0.48789,-0.382826 -0.97319,-0.767506 -1.45602,-1.153954 0.0181,-0.01744 0.0362,-0.03489 0.0542,-0.05234 0.61036,-0.58927 1.53002,-0.731052 2.06303,-0.314636 0.49281,0.38501 0.9883,0.768078 1.48658,1.149113 -0.0118,0.01171 -0.0236,0.02342 -0.0354,0.03512 -0.61892,0.613764 -1.56889,0.763177 -2.11242,0.336692 z m 2.01901,-0.536596 c -0.49224,-0.377189 -0.98176,-0.756358 -1.46868,-1.137422 0.0179,-0.01764 0.0358,-0.03528 0.0536,-0.05293 0.60332,-0.595889 1.52063,-0.748238 2.05834,-0.33813 0.49718,0.379195 0.99716,0.756318 1.50008,1.13128 -0.0117,0.01185 -0.0233,0.0237 -0.035,0.03555 -0.61155,0.621337 -1.55998,0.781871 -2.10838,0.36165 z m 2.01255,-0.560414 c -0.49681,-0.371204 -0.99075,-0.744515 -1.48196,-1.119846 0.0177,-0.01785 0.0353,-0.0357 0.053,-0.05355 0.59583,-0.602852 1.51064,-0.76636 2.05326,-0.362938 0.22361,0.16624 0.4478,0.332044 0.67258,0.497402 0.27962,0.205691 0.56011,0.410709 0.84165,0.614938 -0.0115,0.012 -0.023,0.02401 -0.0345,0.03601 -0.145,0.151173 -0.31577,0.281071 -0.50219,0.382019 -0.56547,0.30622 -1.19838,0.307376 -1.60177,0.006 z m 2.00555,-0.585516 c -0.24515,-0.17828 -0.48953,-0.357148 -0.73324,-0.536525 -0.25496,-0.187657 -0.50916,-0.375887 -0.7626,-0.564678 0.0174,-0.01807 0.0348,-0.03614 0.0523,-0.05421 0.12567,-0.130421 0.27052,-0.244771 0.42792,-0.337838 0.55916,-0.330639 1.20256,-0.351786 1.61812,-0.05121 0.50619,0.366132 1.01591,0.729386 1.53009,1.089083 -0.0113,0.0122 -0.0226,0.0244 -0.0339,0.03659 -0.59396,0.640215 -1.53987,0.825115 -2.09861,0.418785 z m 1.9969,-0.614626 c -0.50763,-0.356339 -1.01099,-0.716103 -1.51097,-1.078635 0.0171,-0.01829 0.0342,-0.03659 0.0513,-0.05489 0.57699,-0.61769 1.47978,-0.806154 2.0327,-0.420909 0.51196,0.356704 1.02852,0.709541 1.5506,1.057832 -0.011,0.01245 -0.0221,0.02489 -0.0331,0.03733 -0.58066,0.653605 -1.52485,0.856341 -2.0905,0.459272 z m 1.98453,-0.652846 c -0.51522,-0.345226 -1.02513,-0.694844 -1.53061,-1.048198 0.0167,-0.01859 0.0334,-0.03719 0.05,-0.05579 0.3515,-0.392324 0.8514,-0.635998 1.32769,-0.646929 0,0 0,0 0,0 0.25922,-0.0059 0.49667,0.05801 0.68676,0.1846 0.3181,0.211839 0.63834,0.421424 0.96242,0.627525 0,0 0,0 0,0 0.15134,0.09645 0.30339,0.192253 0.45751,0.286417 0.0524,0.03188 0.10505,0.06366 0.15796,0.09533 -0.11209,-0.283665 -0.2248,-0.567686 -0.33814,-0.852064 0.11313,0.283836 0.22589,0.56799 0.3383,0.852462 -0.0105,0.01288 -0.0211,0.02576 -0.0316,0.03864 -0.0165,0.02018 -0.0335,0.04011 -0.051,0.05977 0,0 0,0 0,0 -0.0792,0.08865 -0.16746,0.170472 -0.26237,0.244066 -0.3784,0.294034 -0.83923,0.43715 -1.24942,0.394193 -0.19472,-0.02039 -0.37107,-0.08191 -0.51752,-0.180032 z"
       id="path1-8"
       transform="matrix(1.1955502,0,0,0.75660865,-5.9039122,5.3148664)" />
  </g>
</svg>
